<svg xmlns="http://www.w3.org/2000/svg" xmlns:xlink="http://www.w3.org/1999/xlink" width="145" zoomAndPan="magnify" viewBox="0 0 108.75 30.000001" height="40" preserveAspectRatio="xMidYMid meet" version="1.2"><defs><clipPath id="8a9b4ebe98"><path d="M 1.632812 0 L 106.875 0 L 106.875 29.03125 L 1.632812 29.03125 Z M 1.632812 0 "/></clipPath></defs><g id="2955722b9d"><g clip-rule="nonzero" clip-path="url(#8a9b4ebe98)"><path style=" stroke:none;fill-rule:nonzero;fill:#ffffff;fill-opacity:1;" d="M 1.632812 0 L 106.875 0 L 106.875 29.03125 L 1.632812 29.03125 Z M 1.632812 0 "/><path style=" stroke:none;fill-rule:nonzero;fill:#ffffff;fill-opacity:1;" d="M 1.632812 0 L 106.875 0 L 106.875 29.03125 L 1.632812 29.03125 Z M 1.632812 0 "/></g><g style="fill:#000000;fill-opacity:1;"><g transform="translate(5.485347, 12.502324)"><path style="stroke:none" d="M -0.808594 0 L -0.808594 -10.25 L 8.296875 -10.25 C 9.179688 -10.25 9.894531 -10.109375 10.449219 -9.824219 C 11.074219 -9.507812 11.527344 -9.050781 11.804688 -8.460938 C 12.042969 -7.953125 12.160156 -7.382812 12.160156 -6.753906 C 12.160156 -5.839844 11.824219 -5.011719 11.148438 -4.261719 L 10.285156 -5.039062 L 10.933594 -6 C 11.46875 -5.640625 11.90625 -5.191406 12.238281 -4.648438 C 12.601562 -4.066406 12.785156 -3.40625 12.785156 -2.675781 C 12.785156 -1.984375 12.636719 -1.355469 12.34375 -0.785156 C 12.027344 -0.171875 11.550781 0.308594 10.910156 0.660156 C 10.304688 0.992188 9.554688 1.160156 8.664062 1.160156 L -0.808594 1.160156 Z M 1.511719 0 L 0.351562 0 L 0.351562 -1.160156 L 8.664062 -1.160156 C 9.15625 -1.160156 9.53125 -1.230469 9.792969 -1.375 C 10.019531 -1.5 10.179688 -1.65625 10.28125 -1.851562 C 10.402344 -2.085938 10.460938 -2.359375 10.460938 -2.675781 C 10.460938 -2.964844 10.398438 -3.214844 10.265625 -3.425781 C 10.109375 -3.683594 9.898438 -3.902344 9.636719 -4.078125 L 8.527344 -4.824219 L 9.421875 -5.816406 C 9.699219 -6.125 9.839844 -6.4375 9.839844 -6.753906 C 9.839844 -7.039062 9.792969 -7.28125 9.703125 -7.476562 C 9.652344 -7.585938 9.546875 -7.679688 9.394531 -7.757812 C 9.171875 -7.875 8.804688 -7.929688 8.296875 -7.929688 L 0.351562 -7.929688 L 0.351562 -9.089844 L 1.511719 -9.089844 Z M 3.402344 -6.941406 L 7.066406 -6.941406 C 7.164062 -6.941406 7.253906 -6.945312 7.339844 -6.957031 C 7.210938 -6.941406 7.101562 -6.882812 7.003906 -6.789062 C 6.914062 -6.695312 6.851562 -6.597656 6.816406 -6.484375 C 6.808594 -6.460938 6.804688 -6.4375 6.800781 -6.417969 L 6.800781 -6.414062 C 6.800781 -6.421875 6.800781 -6.425781 6.800781 -6.429688 C 6.800781 -6.425781 6.800781 -6.425781 6.800781 -6.421875 C 6.804688 -6.40625 6.808594 -6.382812 6.816406 -6.359375 C 6.851562 -6.238281 6.921875 -6.128906 7.023438 -6.03125 C 7.117188 -5.941406 7.222656 -5.890625 7.339844 -5.875 C 7.253906 -5.886719 7.164062 -5.890625 7.066406 -5.890625 L 3.402344 -5.890625 L 3.402344 -7.050781 L 4.5625 -7.050781 L 4.5625 -5.777344 L 3.402344 -5.777344 Z M 2.242188 -4.617188 L 2.242188 -8.210938 L 7.066406 -8.210938 C 7.261719 -8.210938 7.453125 -8.199219 7.636719 -8.175781 C 8.019531 -8.128906 8.351562 -7.972656 8.625 -7.710938 C 8.957031 -7.394531 9.121094 -6.964844 9.121094 -6.414062 C 9.121094 -5.886719 8.964844 -5.464844 8.644531 -5.148438 C 8.367188 -4.871094 8.03125 -4.707031 7.636719 -4.652344 C 7.453125 -4.628906 7.261719 -4.617188 7.066406 -4.617188 Z M 3.402344 -3.421875 L 7.6875 -3.421875 C 7.785156 -3.421875 7.878906 -3.425781 7.960938 -3.4375 C 7.84375 -3.421875 7.738281 -3.371094 7.648438 -3.28125 C 7.546875 -3.1875 7.476562 -3.078125 7.441406 -2.960938 C 7.433594 -2.933594 7.425781 -2.90625 7.425781 -2.886719 L 7.421875 -2.882812 C 7.421875 -2.886719 7.421875 -2.890625 7.421875 -2.894531 C 7.421875 -2.894531 7.421875 -2.894531 7.425781 -2.890625 C 7.425781 -2.871094 7.429688 -2.851562 7.4375 -2.824219 C 7.476562 -2.703125 7.542969 -2.59375 7.648438 -2.496094 C 7.738281 -2.410156 7.84375 -2.359375 7.960938 -2.34375 C 7.878906 -2.351562 7.785156 -2.359375 7.6875 -2.359375 L 3.402344 -2.359375 L 3.402344 -3.519531 L 4.5625 -3.519531 L 4.5625 -2.261719 L 3.402344 -2.261719 Z M 2.242188 -1.097656 L 2.242188 -4.679688 L 7.6875 -4.679688 C 7.886719 -4.679688 8.074219 -4.667969 8.257812 -4.644531 C 8.644531 -4.59375 8.972656 -4.441406 9.25 -4.179688 C 9.578125 -3.863281 9.746094 -3.429688 9.746094 -2.882812 C 9.746094 -2.34375 9.578125 -1.917969 9.25 -1.601562 C 8.972656 -1.339844 8.644531 -1.183594 8.257812 -1.132812 C 8.074219 -1.109375 7.886719 -1.097656 7.6875 -1.097656 Z M 2.242188 -1.097656 "/></g></g><g style="fill:#000000;fill-opacity:1;"><g transform="translate(17.030924, 12.502324)"><path style="stroke:none" d="M 5.933594 1.289062 C 3.648438 1.289062 1.941406 0.804688 0.816406 -0.167969 C 0.21875 -0.6875 -0.226562 -1.328125 -0.523438 -2.09375 C -0.800781 -2.8125 -0.941406 -3.636719 -0.941406 -4.558594 C -0.941406 -5.476562 -0.800781 -6.296875 -0.523438 -7.015625 C -0.226562 -7.777344 0.222656 -8.414062 0.820312 -8.929688 C 1.941406 -9.898438 3.648438 -10.382812 5.933594 -10.382812 C 8.210938 -10.382812 9.914062 -9.898438 11.042969 -8.933594 C 11.644531 -8.417969 12.09375 -7.777344 12.390625 -7.015625 C 12.671875 -6.296875 12.808594 -5.480469 12.808594 -4.558594 C 12.808594 -3.636719 12.671875 -2.820312 12.390625 -2.097656 C 12.09375 -1.335938 11.644531 -0.695312 11.046875 -0.175781 C 9.917969 0.800781 8.214844 1.289062 5.933594 1.289062 Z M 5.933594 -1.03125 C 6.828125 -1.03125 7.585938 -1.117188 8.210938 -1.285156 C 8.765625 -1.4375 9.203125 -1.652344 9.527344 -1.929688 C 10.167969 -2.484375 10.488281 -3.363281 10.488281 -4.558594 C 10.488281 -5.753906 10.167969 -6.625 9.53125 -7.171875 C 9.210938 -7.445312 8.769531 -7.660156 8.214844 -7.808594 C 7.589844 -7.976562 6.828125 -8.058594 5.933594 -8.058594 C 5.039062 -8.058594 4.273438 -7.976562 3.648438 -7.808594 C 3.089844 -7.660156 2.652344 -7.445312 2.335938 -7.171875 C 1.699219 -6.625 1.382812 -5.753906 1.382812 -4.558594 C 1.382812 -3.355469 1.699219 -2.476562 2.335938 -1.921875 C 2.65625 -1.648438 3.09375 -1.433594 3.648438 -1.285156 C 4.273438 -1.117188 5.039062 -1.03125 5.933594 -1.03125 Z M 5.933594 -3.601562 C 6.472656 -3.601562 6.855469 -3.65625 7.082031 -3.765625 C 7.21875 -3.828125 7.304688 -3.894531 7.335938 -3.964844 C 7.410156 -4.121094 7.449219 -4.320312 7.449219 -4.558594 C 7.449219 -4.800781 7.414062 -5 7.339844 -5.152344 C 7.3125 -5.210938 7.234375 -5.269531 7.105469 -5.328125 C 6.875 -5.433594 6.484375 -5.488281 5.933594 -5.488281 C 5.390625 -5.488281 5.003906 -5.4375 4.769531 -5.332031 C 4.644531 -5.277344 4.570312 -5.222656 4.546875 -5.164062 C 4.472656 -5.003906 4.433594 -4.800781 4.433594 -4.558594 C 4.433594 -4.3125 4.472656 -4.105469 4.546875 -3.9375 C 4.574219 -3.878906 4.652344 -3.820312 4.777344 -3.761719 C 5.007812 -3.65625 5.394531 -3.601562 5.933594 -3.601562 Z M 5.933594 -1.28125 C 5.054688 -1.28125 4.347656 -1.40625 3.804688 -1.652344 C 3.160156 -1.949219 2.707031 -2.390625 2.4375 -2.96875 C 2.222656 -3.445312 2.113281 -3.972656 2.113281 -4.558594 C 2.113281 -5.144531 2.222656 -5.675781 2.441406 -6.144531 C 2.710938 -6.722656 3.167969 -7.15625 3.816406 -7.449219 C 4.351562 -7.691406 5.058594 -7.808594 5.933594 -7.808594 C 6.824219 -7.808594 7.539062 -7.6875 8.078125 -7.4375 C 8.71875 -7.140625 9.171875 -6.710938 9.4375 -6.144531 C 9.660156 -5.675781 9.769531 -5.148438 9.769531 -4.558594 C 9.769531 -3.96875 9.65625 -3.433594 9.429688 -2.960938 C 9.160156 -2.394531 8.707031 -1.964844 8.074219 -1.664062 C 7.53125 -1.410156 6.820312 -1.28125 5.933594 -1.28125 Z M 5.933594 -1.28125 "/></g></g><g style="fill:#000000;fill-opacity:1;"><g transform="translate(27.992079, 12.502324)"><path style="stroke:none" d="M 2.308594 0.382812 L -1.414062 -10.25 L 4.339844 -10.25 L 6.742188 -2.824219 L 5.636719 -2.46875 L 4.539062 -2.839844 L 7.050781 -10.25 L 12.375 -10.25 L 14.902344 -2.84375 L 13.804688 -2.46875 L 12.699219 -2.824219 L 15.089844 -10.25 L 20.84375 -10.25 L 16.863281 1.160156 L 10.746094 1.160156 L 8.613281 -5.296875 L 9.714844 -5.664062 L 10.816406 -5.296875 L 8.683594 1.160156 L 2.578125 1.160156 Z M 4.5 -0.382812 L 3.402344 0 L 3.402344 -1.160156 L 7.84375 -1.160156 L 7.84375 0 L 6.742188 -0.363281 L 9.714844 -9.363281 L 12.6875 -0.363281 L 11.585938 0 L 11.585938 -1.160156 L 16.039062 -1.160156 L 16.039062 0 L 14.941406 -0.382812 L 18.113281 -9.472656 L 19.207031 -9.089844 L 19.207031 -7.929688 L 15.933594 -7.929688 L 15.933594 -9.089844 L 17.039062 -8.734375 L 13.839844 1.222656 L 10.445312 -8.714844 L 11.546875 -9.089844 L 11.546875 -7.929688 L 7.882812 -7.929688 L 7.882812 -9.089844 L 8.984375 -8.71875 L 5.609375 1.222656 L 2.390625 -8.734375 L 3.492188 -9.089844 L 3.492188 -7.929688 L 0.222656 -7.929688 L 0.222656 -9.089844 L 1.316406 -9.472656 Z M 4.5 -0.382812 "/></g></g><g style="fill:#000000;fill-opacity:1;"><g transform="translate(47.290985, 12.502324)"><path style="stroke:none" d="M -0.808594 0 L -0.808594 -10.25 L 7.066406 -10.25 C 7.765625 -10.25 8.433594 -10.136719 9.074219 -9.902344 C 9.726562 -9.664062 10.316406 -9.304688 10.835938 -8.832031 C 11.371094 -8.339844 11.789062 -7.730469 12.085938 -6.996094 C 12.378906 -6.285156 12.523438 -5.46875 12.523438 -4.546875 C 12.523438 -3.621094 12.378906 -2.804688 12.085938 -2.09375 C 11.789062 -1.359375 11.371094 -0.75 10.835938 -0.261719 C 10.316406 0.214844 9.726562 0.574219 9.074219 0.8125 C 8.433594 1.042969 7.765625 1.160156 7.066406 1.160156 L -0.808594 1.160156 Z M 1.511719 0 L 0.351562 0 L 0.351562 -1.160156 L 7.066406 -1.160156 C 7.492188 -1.160156 7.894531 -1.230469 8.277344 -1.371094 C 8.644531 -1.503906 8.976562 -1.703125 9.269531 -1.972656 C 9.546875 -2.226562 9.769531 -2.5625 9.9375 -2.972656 C 10.113281 -3.402344 10.203125 -3.925781 10.203125 -4.546875 C 10.203125 -5.164062 10.113281 -5.6875 9.9375 -6.117188 C 9.769531 -6.53125 9.546875 -6.863281 9.269531 -7.117188 C 8.976562 -7.386719 8.644531 -7.585938 8.277344 -7.722656 C 7.894531 -7.859375 7.492188 -7.929688 7.066406 -7.929688 L 0.351562 -7.929688 L 0.351562 -9.089844 L 1.511719 -9.089844 Z M 3.402344 -3.730469 L 6.066406 -3.730469 C 6.28125 -3.730469 6.5 -3.746094 6.710938 -3.773438 C 6.828125 -3.789062 6.929688 -3.820312 7.015625 -3.871094 C 7.035156 -3.882812 7.058594 -3.917969 7.089844 -3.972656 C 7.105469 -4.003906 7.121094 -4.058594 7.132812 -4.128906 C 7.152344 -4.242188 7.164062 -4.382812 7.164062 -4.546875 C 7.164062 -4.707031 7.152344 -4.847656 7.132812 -4.960938 C 7.121094 -5.035156 7.105469 -5.085938 7.089844 -5.117188 C 7.058594 -5.175781 7.035156 -5.207031 7.015625 -5.21875 C 6.929688 -5.269531 6.828125 -5.300781 6.710938 -5.316406 C 6.5 -5.34375 6.28125 -5.359375 6.066406 -5.359375 L 3.402344 -5.359375 L 3.402344 -6.519531 L 4.5625 -6.519531 L 4.5625 -2.570312 L 3.402344 -2.570312 Z M 2.242188 -1.410156 L 2.242188 -7.679688 L 6.066406 -7.679688 C 6.382812 -7.679688 6.699219 -7.660156 7.015625 -7.617188 C 7.429688 -7.5625 7.8125 -7.4375 8.164062 -7.238281 C 8.585938 -6.996094 8.917969 -6.640625 9.160156 -6.167969 C 9.375 -5.738281 9.484375 -5.199219 9.484375 -4.546875 C 9.484375 -3.894531 9.375 -3.351562 9.160156 -2.921875 C 8.917969 -2.449219 8.585938 -2.09375 8.164062 -1.855469 C 7.8125 -1.652344 7.429688 -1.527344 7.015625 -1.472656 C 6.699219 -1.429688 6.382812 -1.410156 6.066406 -1.410156 Z M 2.242188 -1.410156 "/></g></g><g style="fill:#000000;fill-opacity:1;"><g transform="translate(58.836565, 12.502324)"><path style="stroke:none" d="M 5.933594 1.289062 C 3.648438 1.289062 1.941406 0.804688 0.816406 -0.167969 C 0.21875 -0.6875 -0.226562 -1.328125 -0.523438 -2.09375 C -0.800781 -2.8125 -0.941406 -3.636719 -0.941406 -4.558594 C -0.941406 -5.476562 -0.800781 -6.296875 -0.523438 -7.015625 C -0.226562 -7.777344 0.222656 -8.414062 0.820312 -8.929688 C 1.941406 -9.898438 3.648438 -10.382812 5.933594 -10.382812 C 8.210938 -10.382812 9.914062 -9.898438 11.042969 -8.933594 C 11.644531 -8.417969 12.09375 -7.777344 12.390625 -7.015625 C 12.671875 -6.296875 12.808594 -5.480469 12.808594 -4.558594 C 12.808594 -3.636719 12.671875 -2.820312 12.390625 -2.097656 C 12.09375 -1.335938 11.644531 -0.695312 11.046875 -0.175781 C 9.917969 0.800781 8.214844 1.289062 5.933594 1.289062 Z M 5.933594 -1.03125 C 6.828125 -1.03125 7.585938 -1.117188 8.210938 -1.285156 C 8.765625 -1.4375 9.203125 -1.652344 9.527344 -1.929688 C 10.167969 -2.484375 10.488281 -3.363281 10.488281 -4.558594 C 10.488281 -5.753906 10.167969 -6.625 9.53125 -7.171875 C 9.210938 -7.445312 8.769531 -7.660156 8.214844 -7.808594 C 7.589844 -7.976562 6.828125 -8.058594 5.933594 -8.058594 C 5.039062 -8.058594 4.273438 -7.976562 3.648438 -7.808594 C 3.089844 -7.660156 2.652344 -7.445312 2.335938 -7.171875 C 1.699219 -6.625 1.382812 -5.753906 1.382812 -4.558594 C 1.382812 -3.355469 1.699219 -2.476562 2.335938 -1.921875 C 2.65625 -1.648438 3.09375 -1.433594 3.648438 -1.285156 C 4.273438 -1.117188 5.039062 -1.03125 5.933594 -1.03125 Z M 5.933594 -3.601562 C 6.472656 -3.601562 6.855469 -3.65625 7.082031 -3.765625 C 7.21875 -3.828125 7.304688 -3.894531 7.335938 -3.964844 C 7.410156 -4.121094 7.449219 -4.320312 7.449219 -4.558594 C 7.449219 -4.800781 7.414062 -5 7.339844 -5.152344 C 7.3125 -5.210938 7.234375 -5.269531 7.105469 -5.328125 C 6.875 -5.433594 6.484375 -5.488281 5.933594 -5.488281 C 5.390625 -5.488281 5.003906 -5.4375 4.769531 -5.332031 C 4.644531 -5.277344 4.570312 -5.222656 4.546875 -5.164062 C 4.472656 -5.003906 4.433594 -4.800781 4.433594 -4.558594 C 4.433594 -4.3125 4.472656 -4.105469 4.546875 -3.9375 C 4.574219 -3.878906 4.652344 -3.820312 4.777344 -3.761719 C 5.007812 -3.65625 5.394531 -3.601562 5.933594 -3.601562 Z M 5.933594 -1.28125 C 5.054688 -1.28125 4.347656 -1.40625 3.804688 -1.652344 C 3.160156 -1.949219 2.707031 -2.390625 2.4375 -2.96875 C 2.222656 -3.445312 2.113281 -3.972656 2.113281 -4.558594 C 2.113281 -5.144531 2.222656 -5.675781 2.441406 -6.144531 C 2.710938 -6.722656 3.167969 -7.15625 3.816406 -7.449219 C 4.351562 -7.691406 5.058594 -7.808594 5.933594 -7.808594 C 6.824219 -7.808594 7.539062 -7.6875 8.078125 -7.4375 C 8.71875 -7.140625 9.171875 -6.710938 9.4375 -6.144531 C 9.660156 -5.675781 9.769531 -5.148438 9.769531 -4.558594 C 9.769531 -3.96875 9.65625 -3.433594 9.429688 -2.960938 C 9.160156 -2.394531 8.707031 -1.964844 8.074219 -1.664062 C 7.53125 -1.410156 6.820312 -1.28125 5.933594 -1.28125 Z M 5.933594 -1.28125 "/></g></g><g style="fill:#000000;fill-opacity:1;"><g transform="translate(69.797715, 12.502324)"><path style="stroke:none" d="M 2.308594 0.382812 L -1.414062 -10.25 L 4.339844 -10.25 L 6.742188 -2.824219 L 5.636719 -2.46875 L 4.539062 -2.839844 L 7.050781 -10.25 L 12.375 -10.25 L 14.902344 -2.84375 L 13.804688 -2.46875 L 12.699219 -2.824219 L 15.089844 -10.25 L 20.84375 -10.25 L 16.863281 1.160156 L 10.746094 1.160156 L 8.613281 -5.296875 L 9.714844 -5.664062 L 10.816406 -5.296875 L 8.683594 1.160156 L 2.578125 1.160156 Z M 4.5 -0.382812 L 3.402344 0 L 3.402344 -1.160156 L 7.84375 -1.160156 L 7.84375 0 L 6.742188 -0.363281 L 9.714844 -9.363281 L 12.6875 -0.363281 L 11.585938 0 L 11.585938 -1.160156 L 16.039062 -1.160156 L 16.039062 0 L 14.941406 -0.382812 L 18.113281 -9.472656 L 19.207031 -9.089844 L 19.207031 -7.929688 L 15.933594 -7.929688 L 15.933594 -9.089844 L 17.039062 -8.734375 L 13.839844 1.222656 L 10.445312 -8.714844 L 11.546875 -9.089844 L 11.546875 -7.929688 L 7.882812 -7.929688 L 7.882812 -9.089844 L 8.984375 -8.71875 L 5.609375 1.222656 L 2.390625 -8.734375 L 3.492188 -9.089844 L 3.492188 -7.929688 L 0.222656 -7.929688 L 0.222656 -9.089844 L 1.316406 -9.472656 Z M 4.5 -0.382812 "/></g></g><g style="fill:#000000;fill-opacity:1;"><g transform="translate(89.096624, 12.502324)"><path style="stroke:none" d="M -0.808594 0 L -0.808594 -10.25 L 4.933594 -10.25 L 9.929688 -4.054688 L 9.027344 -3.324219 L 7.867188 -3.324219 L 7.867188 -10.25 L 13.226562 -10.25 L 13.226562 1.160156 L 7.496094 1.160156 L 2.5 -5.039062 L 3.402344 -5.765625 L 4.5625 -5.765625 L 4.5625 1.160156 L -0.808594 1.160156 Z M 1.511719 0 L 0.351562 0 L 0.351562 -1.160156 L 3.402344 -1.160156 L 3.402344 0 L 2.242188 0 L 2.242188 -9.054688 L 8.957031 -0.730469 L 8.050781 0 L 8.050781 -1.160156 L 12.066406 -1.160156 L 12.066406 0 L 10.90625 0 L 10.90625 -9.089844 L 12.066406 -9.089844 L 12.066406 -7.929688 L 9.027344 -7.929688 L 9.027344 -9.089844 L 10.1875 -9.089844 L 10.1875 -0.0351562 L 3.472656 -8.363281 L 4.375 -9.089844 L 4.375 -7.929688 L 0.351562 -7.929688 L 0.351562 -9.089844 L 1.511719 -9.089844 Z M 1.511719 0 "/></g></g><g style="fill:#000000;fill-opacity:1;"><g transform="translate(101.525478, 12.502324)"><path style="stroke:none" d=""/></g></g><g style="fill:#ffffff;fill-opacity:1;"><g transform="translate(5.485347, 12.502324)"><path style="stroke:none" d="M 0.34375 0 L 0.34375 -9.09375 L 8.296875 -9.09375 C 8.984375 -9.09375 9.519531 -8.988281 9.90625 -8.78125 C 10.300781 -8.582031 10.582031 -8.304688 10.75 -7.953125 C 10.914062 -7.609375 11 -7.207031 11 -6.75 C 11 -6.132812 10.757812 -5.5625 10.28125 -5.03125 C 10.675781 -4.769531 11 -4.4375 11.25 -4.03125 C 11.5 -3.632812 11.625 -3.179688 11.625 -2.671875 C 11.625 -2.171875 11.519531 -1.71875 11.3125 -1.3125 C 11.101562 -0.914062 10.78125 -0.597656 10.34375 -0.359375 C 9.914062 -0.117188 9.351562 0 8.65625 0 Z M 3.40625 -5.78125 L 7.0625 -5.78125 C 7.207031 -5.78125 7.347656 -5.785156 7.484375 -5.796875 C 7.617188 -5.816406 7.726562 -5.875 7.8125 -5.96875 C 7.90625 -6.0625 7.953125 -6.210938 7.953125 -6.421875 C 7.953125 -6.628906 7.90625 -6.773438 7.8125 -6.859375 C 7.726562 -6.953125 7.617188 -7.003906 7.484375 -7.015625 C 7.347656 -7.035156 7.207031 -7.046875 7.0625 -7.046875 L 3.40625 -7.046875 Z M 3.40625 -2.265625 L 7.6875 -2.265625 C 7.832031 -2.265625 7.972656 -2.269531 8.109375 -2.28125 C 8.242188 -2.300781 8.351562 -2.351562 8.4375 -2.4375 C 8.53125 -2.53125 8.578125 -2.675781 8.578125 -2.875 C 8.578125 -3.09375 8.53125 -3.242188 8.4375 -3.328125 C 8.351562 -3.421875 8.242188 -3.472656 8.109375 -3.484375 C 7.972656 -3.503906 7.832031 -3.515625 7.6875 -3.515625 L 3.40625 -3.515625 Z M 3.40625 -2.265625 "/></g></g><g style="fill:#ffffff;fill-opacity:1;"><g transform="translate(17.030924, 12.502324)"><path style="stroke:none" d="M 5.9375 0.125 C 3.9375 0.125 2.484375 -0.265625 1.578125 -1.046875 C 0.671875 -1.828125 0.21875 -3 0.21875 -4.5625 C 0.21875 -6.101562 0.671875 -7.265625 1.578125 -8.046875 C 2.484375 -8.828125 3.9375 -9.21875 5.9375 -9.21875 C 7.925781 -9.21875 9.375 -8.828125 10.28125 -8.046875 C 11.1875 -7.265625 11.640625 -6.101562 11.640625 -4.5625 C 11.640625 -3.007812 11.1875 -1.835938 10.28125 -1.046875 C 9.375 -0.265625 7.925781 0.125 5.9375 0.125 Z M 5.9375 -2.4375 C 6.644531 -2.4375 7.191406 -2.523438 7.578125 -2.703125 C 7.960938 -2.890625 8.226562 -3.140625 8.375 -3.453125 C 8.53125 -3.773438 8.609375 -4.144531 8.609375 -4.5625 C 8.609375 -4.976562 8.535156 -5.335938 8.390625 -5.640625 C 8.242188 -5.953125 7.976562 -6.195312 7.59375 -6.375 C 7.207031 -6.550781 6.65625 -6.640625 5.9375 -6.640625 C 5.226562 -6.640625 4.679688 -6.550781 4.296875 -6.375 C 3.910156 -6.207031 3.640625 -5.96875 3.484375 -5.65625 C 3.335938 -5.34375 3.265625 -4.976562 3.265625 -4.5625 C 3.265625 -4.144531 3.335938 -3.773438 3.484375 -3.453125 C 3.640625 -3.128906 3.910156 -2.878906 4.296875 -2.703125 C 4.679688 -2.523438 5.226562 -2.4375 5.9375 -2.4375 Z M 5.9375 -2.4375 "/></g></g><g style="fill:#ffffff;fill-opacity:1;"><g transform="translate(27.992079, 12.502324)"><path style="stroke:none" d="M 3.40625 0 L 0.21875 -9.09375 L 3.5 -9.09375 L 5.640625 -2.46875 L 7.875 -9.09375 L 11.546875 -9.09375 L 13.796875 -2.46875 L 15.9375 -9.09375 L 19.203125 -9.09375 L 16.03125 0 L 11.578125 0 L 9.71875 -5.65625 L 7.84375 0 Z M 3.40625 0 "/></g></g><g style="fill:#ffffff;fill-opacity:1;"><g transform="translate(47.290985, 12.502324)"><path style="stroke:none" d="M 0.34375 0 L 0.34375 -9.09375 L 7.0625 -9.09375 C 7.625 -9.09375 8.160156 -9 8.671875 -8.8125 C 9.179688 -8.625 9.640625 -8.34375 10.046875 -7.96875 C 10.453125 -7.59375 10.769531 -7.117188 11 -6.546875 C 11.238281 -5.984375 11.359375 -5.316406 11.359375 -4.546875 C 11.359375 -3.773438 11.238281 -3.101562 11 -2.53125 C 10.769531 -1.957031 10.453125 -1.484375 10.046875 -1.109375 C 9.640625 -0.742188 9.179688 -0.46875 8.671875 -0.28125 C 8.160156 -0.09375 7.625 0 7.0625 0 Z M 3.40625 -2.578125 L 6.0625 -2.578125 C 6.332031 -2.578125 6.597656 -2.59375 6.859375 -2.625 C 7.128906 -2.65625 7.375 -2.734375 7.59375 -2.859375 C 7.8125 -2.984375 7.988281 -3.175781 8.125 -3.4375 C 8.257812 -3.707031 8.328125 -4.078125 8.328125 -4.546875 C 8.328125 -5.015625 8.257812 -5.378906 8.125 -5.640625 C 7.988281 -5.898438 7.8125 -6.09375 7.59375 -6.21875 C 7.375 -6.351562 7.128906 -6.4375 6.859375 -6.46875 C 6.597656 -6.5 6.332031 -6.515625 6.0625 -6.515625 L 3.40625 -6.515625 Z M 3.40625 -2.578125 "/></g></g><g style="fill:#ffffff;fill-opacity:1;"><g transform="translate(58.836565, 12.502324)"><path style="stroke:none" d="M 5.9375 0.125 C 3.9375 0.125 2.484375 -0.265625 1.578125 -1.046875 C 0.671875 -1.828125 0.21875 -3 0.21875 -4.5625 C 0.21875 -6.101562 0.671875 -7.265625 1.578125 -8.046875 C 2.484375 -8.828125 3.9375 -9.21875 5.9375 -9.21875 C 7.925781 -9.21875 9.375 -8.828125 10.28125 -8.046875 C 11.1875 -7.265625 11.640625 -6.101562 11.640625 -4.5625 C 11.640625 -3.007812 11.1875 -1.835938 10.28125 -1.046875 C 9.375 -0.265625 7.925781 0.125 5.9375 0.125 Z M 5.9375 -2.4375 C 6.644531 -2.4375 7.191406 -2.523438 7.578125 -2.703125 C 7.960938 -2.890625 8.226562 -3.140625 8.375 -3.453125 C 8.53125 -3.773438 8.609375 -4.144531 8.609375 -4.5625 C 8.609375 -4.976562 8.535156 -5.335938 8.390625 -5.640625 C 8.242188 -5.953125 7.976562 -6.195312 7.59375 -6.375 C 7.207031 -6.550781 6.65625 -6.640625 5.9375 -6.640625 C 5.226562 -6.640625 4.679688 -6.550781 4.296875 -6.375 C 3.910156 -6.207031 3.640625 -5.96875 3.484375 -5.65625 C 3.335938 -5.34375 3.265625 -4.976562 3.265625 -4.5625 C 3.265625 -4.144531 3.335938 -3.773438 3.484375 -3.453125 C 3.640625 -3.128906 3.910156 -2.878906 4.296875 -2.703125 C 4.679688 -2.523438 5.226562 -2.4375 5.9375 -2.4375 Z M 5.9375 -2.4375 "/></g></g><g style="fill:#ffffff;fill-opacity:1;"><g transform="translate(69.797715, 12.502324)"><path style="stroke:none" d="M 3.40625 0 L 0.21875 -9.09375 L 3.5 -9.09375 L 5.640625 -2.46875 L 7.875 -9.09375 L 11.546875 -9.09375 L 13.796875 -2.46875 L 15.9375 -9.09375 L 19.203125 -9.09375 L 16.03125 0 L 11.578125 0 L 9.71875 -5.65625 L 7.84375 0 Z M 3.40625 0 "/></g></g><g style="fill:#ffffff;fill-opacity:1;"><g transform="translate(89.096624, 12.502324)"><path style="stroke:none" d="M 0.34375 0 L 0.34375 -9.09375 L 4.375 -9.09375 L 9.03125 -3.328125 L 9.03125 -9.09375 L 12.0625 -9.09375 L 12.0625 0 L 8.046875 0 L 3.40625 -5.765625 L 3.40625 0 Z M 0.34375 0 "/></g></g><g style="fill:#ffffff;fill-opacity:1;"><g transform="translate(101.525478, 12.502324)"><path style="stroke:none" d=""/></g></g><g style="fill:#ffffff;fill-opacity:1;"><g transform="translate(34.586806, 18.540234)"><path style="stroke:none" d="M 1.796875 0.03125 C 1.378906 0.03125 1.03125 -0.109375 0.75 -0.390625 C 0.457031 -0.679688 0.3125 -1.035156 0.3125 -1.453125 C 0.3125 -1.867188 0.457031 -2.222656 0.75 -2.515625 C 1.03125 -2.796875 1.378906 -2.9375 1.796875 -2.9375 C 1.984375 -2.9375 2.175781 -2.898438 2.375 -2.828125 C 2.5625 -2.742188 2.722656 -2.632812 2.859375 -2.5 L 2.671875 -2.328125 C 2.429688 -2.566406 2.140625 -2.6875 1.796875 -2.6875 C 1.453125 -2.6875 1.164062 -2.566406 0.9375 -2.328125 C 0.6875 -2.085938 0.5625 -1.796875 0.5625 -1.453125 C 0.5625 -1.109375 0.6875 -0.816406 0.9375 -0.578125 C 1.164062 -0.335938 1.453125 -0.21875 1.796875 -0.21875 C 2.140625 -0.21875 2.429688 -0.335938 2.671875 -0.578125 L 2.859375 -0.40625 C 2.722656 -0.269531 2.5625 -0.160156 2.375 -0.078125 C 2.175781 -0.00390625 1.984375 0.03125 1.796875 0.03125 Z M 1.796875 0.03125 "/></g></g><g style="fill:#ffffff;fill-opacity:1;"><g transform="translate(38.764786, 18.540234)"><path style="stroke:none" d="M 1.75 0.03125 C 1.332031 0.03125 0.976562 -0.113281 0.6875 -0.40625 C 0.394531 -0.6875 0.25 -1.035156 0.25 -1.453125 C 0.25 -1.867188 0.394531 -2.222656 0.6875 -2.515625 C 0.976562 -2.796875 1.332031 -2.9375 1.75 -2.9375 C 2.164062 -2.9375 2.519531 -2.796875 2.8125 -2.515625 C 3.09375 -2.222656 3.234375 -1.867188 3.234375 -1.453125 C 3.234375 -1.035156 3.09375 -0.6875 2.8125 -0.40625 C 2.519531 -0.113281 2.164062 0.03125 1.75 0.03125 Z M 1.75 -0.21875 C 2.09375 -0.21875 2.382812 -0.335938 2.625 -0.578125 C 2.851562 -0.816406 2.96875 -1.109375 2.96875 -1.453125 C 2.96875 -1.796875 2.851562 -2.085938 2.625 -2.328125 C 2.382812 -2.566406 2.09375 -2.6875 1.75 -2.6875 C 1.40625 -2.6875 1.113281 -2.566406 0.875 -2.328125 C 0.632812 -2.085938 0.515625 -1.796875 0.515625 -1.453125 C 0.515625 -1.109375 0.632812 -0.816406 0.875 -0.578125 C 1.113281 -0.335938 1.40625 -0.21875 1.75 -0.21875 Z M 1.75 -0.21875 "/></g></g><g style="fill:#ffffff;fill-opacity:1;"><g transform="translate(43.492602, 18.540234)"><path style="stroke:none" d="M 0.625 -0.265625 L 1.71875 -0.265625 L 1.71875 0 L 0.359375 0 L 0.359375 -2.90625 L 0.625 -2.90625 Z M 0.625 -0.265625 "/></g></g><g style="fill:#ffffff;fill-opacity:1;"><g transform="translate(46.485725, 18.540234)"><path style="stroke:none" d="M 0.625 -0.265625 L 1.71875 -0.265625 L 1.71875 0 L 0.359375 0 L 0.359375 -2.90625 L 0.625 -2.90625 Z M 0.625 -0.265625 "/></g></g><g style="fill:#ffffff;fill-opacity:1;"><g transform="translate(49.478847, 18.540234)"><path style="stroke:none" d="M 1.9375 -2.65625 L 0.640625 -2.65625 L 0.640625 -1.578125 L 1.78125 -1.578125 L 1.78125 -1.328125 L 0.640625 -1.328125 L 0.640625 -0.25 L 1.9375 -0.25 L 1.9375 0 L 0.390625 0 L 0.390625 -2.90625 L 1.9375 -2.90625 Z M 1.9375 -2.65625 "/></g></g><g style="fill:#ffffff;fill-opacity:1;"><g transform="translate(52.735272, 18.540234)"><path style="stroke:none" d="M 1.796875 0.03125 C 1.378906 0.03125 1.03125 -0.109375 0.75 -0.390625 C 0.457031 -0.679688 0.3125 -1.035156 0.3125 -1.453125 C 0.3125 -1.867188 0.457031 -2.222656 0.75 -2.515625 C 1.03125 -2.796875 1.378906 -2.9375 1.796875 -2.9375 C 1.984375 -2.9375 2.175781 -2.898438 2.375 -2.828125 C 2.5625 -2.742188 2.722656 -2.632812 2.859375 -2.5 L 2.671875 -2.328125 C 2.429688 -2.566406 2.140625 -2.6875 1.796875 -2.6875 C 1.453125 -2.6875 1.164062 -2.566406 0.9375 -2.328125 C 0.6875 -2.085938 0.5625 -1.796875 0.5625 -1.453125 C 0.5625 -1.109375 0.6875 -0.816406 0.9375 -0.578125 C 1.164062 -0.335938 1.453125 -0.21875 1.796875 -0.21875 C 2.140625 -0.21875 2.429688 -0.335938 2.671875 -0.578125 L 2.859375 -0.40625 C 2.722656 -0.269531 2.5625 -0.160156 2.375 -0.078125 C 2.175781 -0.00390625 1.984375 0.03125 1.796875 0.03125 Z M 1.796875 0.03125 "/></g></g><g style="fill:#ffffff;fill-opacity:1;"><g transform="translate(56.990693, 18.540234)"><path style="stroke:none" d="M 1.9375 -2.90625 L 1.9375 -2.640625 L 1.125 -2.640625 L 1.125 0 L 0.859375 0 L 0.859375 -2.640625 L 0.046875 -2.640625 L 0.046875 -2.90625 Z M 1.9375 -2.90625 "/></g></g><g style="fill:#ffffff;fill-opacity:1;"><g transform="translate(60.212268, 18.540234)"><path style="stroke:none" d="M 0.390625 0 L 0.390625 -2.90625 L 0.640625 -2.90625 L 0.640625 0 Z M 0.390625 0 "/></g></g><g style="fill:#ffffff;fill-opacity:1;"><g transform="translate(62.473566, 18.540234)"><path style="stroke:none" d="M 1.75 0.03125 C 1.332031 0.03125 0.976562 -0.113281 0.6875 -0.40625 C 0.394531 -0.6875 0.25 -1.035156 0.25 -1.453125 C 0.25 -1.867188 0.394531 -2.222656 0.6875 -2.515625 C 0.976562 -2.796875 1.332031 -2.9375 1.75 -2.9375 C 2.164062 -2.9375 2.519531 -2.796875 2.8125 -2.515625 C 3.09375 -2.222656 3.234375 -1.867188 3.234375 -1.453125 C 3.234375 -1.035156 3.09375 -0.6875 2.8125 -0.40625 C 2.519531 -0.113281 2.164062 0.03125 1.75 0.03125 Z M 1.75 -0.21875 C 2.09375 -0.21875 2.382812 -0.335938 2.625 -0.578125 C 2.851562 -0.816406 2.96875 -1.109375 2.96875 -1.453125 C 2.96875 -1.796875 2.851562 -2.085938 2.625 -2.328125 C 2.382812 -2.566406 2.09375 -2.6875 1.75 -2.6875 C 1.40625 -2.6875 1.113281 -2.566406 0.875 -2.328125 C 0.632812 -2.085938 0.515625 -1.796875 0.515625 -1.453125 C 0.515625 -1.109375 0.632812 -0.816406 0.875 -0.578125 C 1.113281 -0.335938 1.40625 -0.21875 1.75 -0.21875 Z M 1.75 -0.21875 "/></g></g><g style="fill:#ffffff;fill-opacity:1;"><g transform="translate(67.201383, 18.540234)"><path style="stroke:none" d="M 2.4375 -2.90625 L 2.703125 -2.90625 L 2.703125 0 L 2.46875 0 L 0.625 -2.453125 L 0.625 0 L 0.359375 0 L 0.359375 -2.90625 L 0.59375 -2.90625 L 2.4375 -0.453125 Z M 2.4375 -2.90625 "/></g></g><g style="fill:#000000;fill-opacity:1;"><g transform="translate(5.538589, 25.63949)"><path style="stroke:none" d="M -0.90625 0 L -0.90625 -11.46875 L 8.382812 -11.46875 C 9.382812 -11.46875 10.269531 -11.25 11.050781 -10.816406 C 11.839844 -10.375 12.460938 -9.761719 12.910156 -8.976562 C 13.351562 -8.199219 13.574219 -7.320312 13.574219 -6.332031 C 13.574219 -5.332031 13.34375 -4.4375 12.878906 -3.648438 C 12.410156 -2.847656 11.761719 -2.234375 10.9375 -1.808594 L 10.34375 -2.964844 L 11.449219 -3.644531 L 14.5 1.296875 L 7.414062 1.296875 L 5.542969 -1.8125 L 6.652344 -2.484375 L 6.652344 -1.1875 L 3.804688 -1.1875 L 3.804688 -2.484375 L 5.105469 -2.484375 L 5.105469 1.296875 L -0.90625 1.296875 Z M 1.691406 0 L 0.390625 0 L 0.390625 -1.296875 L 3.804688 -1.296875 L 3.804688 0 L 2.507812 0 L 2.507812 -3.78125 L 7.386719 -3.78125 L 9.261719 -0.667969 L 8.148438 0 L 8.148438 -1.296875 L 12.171875 -1.296875 L 12.171875 0 L 11.070312 0.683594 L 8.5 -3.472656 L 9.746094 -4.117188 C 10.125 -4.3125 10.421875 -4.59375 10.640625 -4.964844 C 10.863281 -5.347656 10.976562 -5.804688 10.976562 -6.332031 C 10.976562 -6.859375 10.871094 -7.308594 10.652344 -7.6875 C 10.445312 -8.054688 10.152344 -8.339844 9.78125 -8.546875 C 9.398438 -8.761719 8.929688 -8.871094 8.382812 -8.871094 L 0.390625 -8.871094 L 0.390625 -10.167969 L 1.691406 -10.167969 Z M 3.804688 -6.660156 L 7.65625 -6.660156 C 7.765625 -6.660156 7.878906 -6.667969 8.003906 -6.6875 C 7.902344 -6.671875 7.816406 -6.625 7.746094 -6.550781 C 7.660156 -6.464844 7.605469 -6.375 7.578125 -6.28125 C 7.578125 -6.273438 7.574219 -6.269531 7.574219 -6.261719 L 7.574219 -6.265625 C 7.578125 -6.28125 7.578125 -6.304688 7.578125 -6.332031 C 7.578125 -6.363281 7.578125 -6.386719 7.574219 -6.402344 L 7.574219 -6.40625 C 7.574219 -6.398438 7.578125 -6.394531 7.578125 -6.386719 C 7.605469 -6.292969 7.660156 -6.203125 7.746094 -6.117188 C 7.824219 -6.03125 7.921875 -5.984375 8.035156 -5.96875 C 7.902344 -5.984375 7.773438 -5.996094 7.65625 -5.996094 L 3.804688 -5.996094 L 3.804688 -7.292969 L 5.105469 -7.292969 L 5.105469 -5.359375 L 3.804688 -5.359375 Z M 2.507812 -4.0625 L 2.507812 -8.589844 L 7.65625 -8.589844 C 7.886719 -8.589844 8.121094 -8.574219 8.367188 -8.542969 C 8.855469 -8.480469 9.273438 -8.273438 9.613281 -7.917969 C 9.988281 -7.53125 10.175781 -7.003906 10.175781 -6.332031 C 10.175781 -5.664062 9.988281 -5.136719 9.613281 -4.75 C 9.28125 -4.402344 8.875 -4.195312 8.398438 -4.121094 C 8.144531 -4.082031 7.894531 -4.0625 7.65625 -4.0625 Z M 2.507812 -4.0625 "/></g></g><g style="fill:#000000;fill-opacity:1;"><g transform="translate(18.002762, 25.63949)"><path style="stroke:none" d="M -0.90625 0 L -0.90625 -11.46875 L 12.441406 -11.46875 L 12.441406 -6.226562 L 3.804688 -6.226562 L 3.804688 -7.523438 L 5.105469 -7.523438 L 5.105469 -6.230469 L 3.804688 -6.230469 L 3.804688 -7.53125 L 12.441406 -7.53125 L 12.441406 -2.636719 L 3.804688 -2.636719 L 3.804688 -3.9375 L 5.105469 -3.9375 L 5.105469 -2.644531 L 3.804688 -2.644531 L 3.804688 -3.941406 L 12.441406 -3.941406 L 12.441406 1.296875 L -0.90625 1.296875 Z M 1.691406 0 L 0.390625 0 L 0.390625 -1.296875 L 11.140625 -1.296875 L 11.140625 0 L 9.84375 0 L 9.84375 -2.644531 L 11.140625 -2.644531 L 11.140625 -1.34375 L 2.507812 -1.34375 L 2.507812 -5.234375 L 11.140625 -5.234375 L 11.140625 -3.9375 L 9.84375 -3.9375 L 9.84375 -6.230469 L 11.140625 -6.230469 L 11.140625 -4.933594 L 2.507812 -4.933594 L 2.507812 -8.824219 L 11.140625 -8.824219 L 11.140625 -7.523438 L 9.84375 -7.523438 L 9.84375 -10.167969 L 11.140625 -10.167969 L 11.140625 -8.871094 L 0.390625 -8.871094 L 0.390625 -10.167969 L 1.691406 -10.167969 Z M 1.691406 0 "/></g></g><g style="fill:#000000;fill-opacity:1;"><g transform="translate(29.348354, 25.63949)"><path style="stroke:none" d="M -0.90625 0 L -0.90625 -11.46875 L 9.28125 -11.46875 C 10.265625 -11.46875 11.066406 -11.308594 11.691406 -10.992188 C 12.390625 -10.632812 12.894531 -10.125 13.203125 -9.464844 C 13.46875 -8.898438 13.601562 -8.261719 13.601562 -7.554688 C 13.601562 -6.535156 13.226562 -5.605469 12.46875 -4.765625 L 11.503906 -5.636719 L 12.230469 -6.714844 C 12.832031 -6.308594 13.316406 -5.804688 13.691406 -5.203125 C 14.097656 -4.546875 14.300781 -3.808594 14.300781 -2.992188 C 14.300781 -2.21875 14.136719 -1.515625 13.808594 -0.878906 C 13.453125 -0.195312 12.917969 0.34375 12.203125 0.738281 C 11.523438 1.113281 10.6875 1.296875 9.691406 1.296875 L -0.90625 1.296875 Z M 1.691406 0 L 0.390625 0 L 0.390625 -1.296875 L 9.691406 -1.296875 C 10.242188 -1.296875 10.664062 -1.378906 10.953125 -1.539062 C 11.207031 -1.675781 11.386719 -1.855469 11.5 -2.070312 C 11.636719 -2.332031 11.703125 -2.640625 11.703125 -2.992188 C 11.703125 -3.316406 11.628906 -3.597656 11.484375 -3.835938 C 11.304688 -4.121094 11.070312 -4.363281 10.78125 -4.558594 L 9.539062 -5.394531 L 10.542969 -6.507812 C 10.851562 -6.851562 11.007812 -7.199219 11.007812 -7.554688 C 11.007812 -7.875 10.953125 -8.144531 10.851562 -8.359375 C 10.792969 -8.484375 10.679688 -8.589844 10.507812 -8.679688 C 10.257812 -8.804688 9.847656 -8.871094 9.28125 -8.871094 L 0.390625 -8.871094 L 0.390625 -10.167969 L 1.691406 -10.167969 Z M 3.804688 -7.761719 L 7.902344 -7.761719 C 8.011719 -7.761719 8.113281 -7.769531 8.207031 -7.78125 C 8.066406 -7.761719 7.941406 -7.699219 7.835938 -7.59375 C 7.730469 -7.492188 7.664062 -7.378906 7.625 -7.253906 C 7.617188 -7.226562 7.609375 -7.199219 7.609375 -7.179688 L 7.605469 -7.175781 C 7.605469 -7.183594 7.605469 -7.1875 7.605469 -7.191406 C 7.605469 -7.191406 7.605469 -7.1875 7.605469 -7.183594 C 7.609375 -7.164062 7.613281 -7.140625 7.625 -7.113281 C 7.664062 -6.976562 7.742188 -6.855469 7.855469 -6.746094 C 7.960938 -6.644531 8.078125 -6.589844 8.207031 -6.570312 C 8.113281 -6.582031 8.011719 -6.589844 7.902344 -6.589844 L 3.804688 -6.589844 L 3.804688 -7.886719 L 5.105469 -7.886719 L 5.105469 -6.464844 L 3.804688 -6.464844 Z M 2.507812 -5.167969 L 2.507812 -9.1875 L 7.902344 -9.1875 C 8.121094 -9.1875 8.335938 -9.171875 8.539062 -9.148438 C 8.972656 -9.089844 9.339844 -8.917969 9.648438 -8.625 C 10.019531 -8.273438 10.203125 -7.789062 10.203125 -7.175781 C 10.203125 -6.585938 10.027344 -6.113281 9.671875 -5.757812 C 9.359375 -5.445312 8.984375 -5.261719 8.539062 -5.207031 C 8.335938 -5.179688 8.121094 -5.167969 7.902344 -5.167969 Z M 3.804688 -3.824219 L 8.601562 -3.824219 C 8.710938 -3.824219 8.8125 -3.832031 8.90625 -3.84375 C 8.773438 -3.828125 8.65625 -3.769531 8.554688 -3.671875 C 8.441406 -3.5625 8.363281 -3.445312 8.324219 -3.308594 C 8.3125 -3.28125 8.308594 -3.253906 8.304688 -3.226562 C 8.304688 -3.230469 8.304688 -3.234375 8.304688 -3.238281 C 8.304688 -3.238281 8.304688 -3.238281 8.304688 -3.234375 C 8.308594 -3.210938 8.3125 -3.1875 8.320312 -3.160156 C 8.359375 -3.027344 8.4375 -2.902344 8.554688 -2.792969 C 8.65625 -2.695312 8.773438 -2.636719 8.90625 -2.621094 C 8.8125 -2.632812 8.710938 -2.636719 8.601562 -2.636719 L 3.804688 -2.636719 L 3.804688 -3.9375 L 5.105469 -3.9375 L 5.105469 -2.527344 L 3.804688 -2.527344 Z M 2.507812 -1.230469 L 2.507812 -5.234375 L 8.601562 -5.234375 C 8.820312 -5.234375 9.03125 -5.222656 9.238281 -5.195312 C 9.667969 -5.140625 10.039062 -4.964844 10.34375 -4.671875 C 10.714844 -4.320312 10.902344 -3.839844 10.902344 -3.226562 C 10.902344 -2.621094 10.714844 -2.144531 10.34375 -1.789062 C 10.039062 -1.5 9.667969 -1.324219 9.238281 -1.269531 C 9.03125 -1.242188 8.820312 -1.230469 8.601562 -1.230469 Z M 2.507812 -1.230469 "/></g></g><g style="fill:#000000;fill-opacity:1;"><g transform="translate(42.538877, 25.63949)"><path style="stroke:none" d="M -0.90625 0 L -0.90625 -11.46875 L 12.441406 -11.46875 L 12.441406 -6.226562 L 3.804688 -6.226562 L 3.804688 -7.523438 L 5.105469 -7.523438 L 5.105469 -6.230469 L 3.804688 -6.230469 L 3.804688 -7.53125 L 12.441406 -7.53125 L 12.441406 -2.636719 L 3.804688 -2.636719 L 3.804688 -3.9375 L 5.105469 -3.9375 L 5.105469 -2.644531 L 3.804688 -2.644531 L 3.804688 -3.941406 L 12.441406 -3.941406 L 12.441406 1.296875 L -0.90625 1.296875 Z M 1.691406 0 L 0.390625 0 L 0.390625 -1.296875 L 11.140625 -1.296875 L 11.140625 0 L 9.84375 0 L 9.84375 -2.644531 L 11.140625 -2.644531 L 11.140625 -1.34375 L 2.507812 -1.34375 L 2.507812 -5.234375 L 11.140625 -5.234375 L 11.140625 -3.9375 L 9.84375 -3.9375 L 9.84375 -6.230469 L 11.140625 -6.230469 L 11.140625 -4.933594 L 2.507812 -4.933594 L 2.507812 -8.824219 L 11.140625 -8.824219 L 11.140625 -7.523438 L 9.84375 -7.523438 L 9.84375 -10.167969 L 11.140625 -10.167969 L 11.140625 -8.871094 L 0.390625 -8.871094 L 0.390625 -10.167969 L 1.691406 -10.167969 Z M 1.691406 0 "/></g></g><g style="fill:#000000;fill-opacity:1;"><g transform="translate(53.884474, 25.63949)"><path style="stroke:none" d="M -0.90625 0 L -0.90625 -11.46875 L 5.105469 -11.46875 L 5.105469 -2.875 L 3.804688 -2.875 L 3.804688 -4.175781 L 12.148438 -4.175781 L 12.148438 1.296875 L -0.90625 1.296875 Z M 1.691406 0 L 0.390625 0 L 0.390625 -1.296875 L 10.851562 -1.296875 L 10.851562 0 L 9.554688 0 L 9.554688 -2.875 L 10.851562 -2.875 L 10.851562 -1.578125 L 2.507812 -1.578125 L 2.507812 -10.167969 L 3.804688 -10.167969 L 3.804688 -8.871094 L 0.390625 -8.871094 L 0.390625 -10.167969 L 1.691406 -10.167969 Z M 1.691406 0 "/></g></g><g style="fill:#ffffff;fill-opacity:1;"><g transform="translate(5.538589, 25.63949)"><path style="stroke:none" d="M 0.390625 0 L 0.390625 -10.171875 L 8.390625 -10.171875 C 9.160156 -10.171875 9.835938 -10.007812 10.421875 -9.6875 C 11.003906 -9.363281 11.457031 -8.910156 11.78125 -8.328125 C 12.113281 -7.753906 12.28125 -7.085938 12.28125 -6.328125 C 12.28125 -5.566406 12.109375 -4.890625 11.765625 -4.296875 C 11.421875 -3.710938 10.945312 -3.269531 10.34375 -2.96875 L 12.171875 0 L 8.15625 0 L 6.65625 -2.484375 L 3.8125 -2.484375 L 3.8125 0 Z M 3.8125 -5.359375 L 7.65625 -5.359375 C 7.832031 -5.359375 8.015625 -5.375 8.203125 -5.40625 C 8.390625 -5.4375 8.546875 -5.519531 8.671875 -5.65625 C 8.804688 -5.789062 8.875 -6.015625 8.875 -6.328125 C 8.875 -6.648438 8.804688 -6.878906 8.671875 -7.015625 C 8.546875 -7.148438 8.390625 -7.226562 8.203125 -7.25 C 8.015625 -7.28125 7.832031 -7.296875 7.65625 -7.296875 L 3.8125 -7.296875 Z M 3.8125 -5.359375 "/></g></g><g style="fill:#ffffff;fill-opacity:1;"><g transform="translate(18.002762, 25.63949)"><path style="stroke:none" d="M 0.390625 0 L 0.390625 -10.171875 L 11.140625 -10.171875 L 11.140625 -7.53125 L 3.8125 -7.53125 L 3.8125 -6.234375 L 11.140625 -6.234375 L 11.140625 -3.9375 L 3.8125 -3.9375 L 3.8125 -2.640625 L 11.140625 -2.640625 L 11.140625 0 Z M 0.390625 0 "/></g></g><g style="fill:#ffffff;fill-opacity:1;"><g transform="translate(29.348354, 25.63949)"><path style="stroke:none" d="M 0.390625 0 L 0.390625 -10.171875 L 9.28125 -10.171875 C 10.0625 -10.171875 10.664062 -10.054688 11.09375 -9.828125 C 11.53125 -9.609375 11.84375 -9.300781 12.03125 -8.90625 C 12.21875 -8.519531 12.3125 -8.070312 12.3125 -7.5625 C 12.3125 -6.875 12.046875 -6.234375 11.515625 -5.640625 C 11.953125 -5.335938 12.304688 -4.960938 12.578125 -4.515625 C 12.859375 -4.066406 13 -3.5625 13 -3 C 13 -2.4375 12.882812 -1.925781 12.65625 -1.46875 C 12.425781 -1.019531 12.066406 -0.660156 11.578125 -0.390625 C 11.097656 -0.128906 10.46875 0 9.6875 0 Z M 3.8125 -6.46875 L 7.90625 -6.46875 C 8.070312 -6.46875 8.226562 -6.476562 8.375 -6.5 C 8.53125 -6.519531 8.65625 -6.578125 8.75 -6.671875 C 8.851562 -6.773438 8.90625 -6.941406 8.90625 -7.171875 C 8.90625 -7.421875 8.851562 -7.59375 8.75 -7.6875 C 8.65625 -7.78125 8.53125 -7.835938 8.375 -7.859375 C 8.226562 -7.878906 8.070312 -7.890625 7.90625 -7.890625 L 3.8125 -7.890625 Z M 3.8125 -2.53125 L 8.609375 -2.53125 C 8.765625 -2.53125 8.914062 -2.539062 9.0625 -2.5625 C 9.21875 -2.582031 9.347656 -2.640625 9.453125 -2.734375 C 9.554688 -2.828125 9.609375 -2.988281 9.609375 -3.21875 C 9.609375 -3.46875 9.554688 -3.640625 9.453125 -3.734375 C 9.347656 -3.828125 9.21875 -3.882812 9.0625 -3.90625 C 8.914062 -3.925781 8.765625 -3.9375 8.609375 -3.9375 L 3.8125 -3.9375 Z M 3.8125 -2.53125 "/></g></g><g style="fill:#ffffff;fill-opacity:1;"><g transform="translate(42.538877, 25.63949)"><path style="stroke:none" d="M 0.390625 0 L 0.390625 -10.171875 L 11.140625 -10.171875 L 11.140625 -7.53125 L 3.8125 -7.53125 L 3.8125 -6.234375 L 11.140625 -6.234375 L 11.140625 -3.9375 L 3.8125 -3.9375 L 3.8125 -2.640625 L 11.140625 -2.640625 L 11.140625 0 Z M 0.390625 0 "/></g></g><g style="fill:#ffffff;fill-opacity:1;"><g transform="translate(53.884474, 25.63949)"><path style="stroke:none" d="M 0.390625 0 L 0.390625 -10.171875 L 3.8125 -10.171875 L 3.8125 -2.875 L 10.859375 -2.875 L 10.859375 0 Z M 0.390625 0 "/></g></g></g></svg>