<svg xmlns="http://www.w3.org/2000/svg" xmlns:xlink="http://www.w3.org/1999/xlink" width="145" zoomAndPan="magnify" viewBox="0 0 108.75 30.000001" height="40" preserveAspectRatio="xMidYMid meet" version="1.2"><defs><clipPath id="ed1a62d978"><path d="M 1.632812 0 L 106.875 0 L 106.875 29.03125 L 1.632812 29.03125 Z M 1.632812 0 "/></clipPath></defs><g id="296862d328"><g clip-rule="nonzero" clip-path="url(#ed1a62d978)"><path style=" stroke:none;fill-rule:nonzero;fill:#ffffff;fill-opacity:1;" d="M 1.632812 0 L 106.875 0 L 106.875 29.03125 L 1.632812 29.03125 Z M 1.632812 0 "/><path style=" stroke:none;fill-rule:nonzero;fill:#ffffff;fill-opacity:1;" d="M 1.632812 0 L 106.875 0 L 106.875 29.03125 L 1.632812 29.03125 Z M 1.632812 0 "/></g><g style="fill:#000000;fill-opacity:1;"><g transform="translate(5.54092, 17.058603)"><path style="stroke:none" d="M -0.820312 0 L -0.820312 -10.398438 L 8.417969 -10.398438 C 9.308594 -10.398438 10.039062 -10.253906 10.601562 -9.96875 C 11.234375 -9.644531 11.695312 -9.183594 11.972656 -8.582031 C 12.214844 -8.070312 12.335938 -7.492188 12.335938 -6.851562 C 12.335938 -5.925781 11.992188 -5.082031 11.308594 -4.324219 L 10.433594 -5.113281 L 11.09375 -6.089844 C 11.636719 -5.722656 12.078125 -5.265625 12.417969 -4.71875 C 12.785156 -4.125 12.96875 -3.457031 12.96875 -2.714844 C 12.96875 -2.015625 12.820312 -1.375 12.519531 -0.796875 C 12.199219 -0.175781 11.714844 0.3125 11.066406 0.667969 C 10.453125 1.007812 9.691406 1.175781 8.789062 1.175781 L -0.820312 1.175781 Z M 1.535156 0 L 0.355469 0 L 0.355469 -1.175781 L 8.789062 -1.175781 C 9.289062 -1.175781 9.671875 -1.25 9.933594 -1.394531 C 10.164062 -1.519531 10.328125 -1.679688 10.429688 -1.878906 C 10.550781 -2.117188 10.613281 -2.394531 10.613281 -2.714844 C 10.613281 -3.007812 10.546875 -3.261719 10.414062 -3.476562 C 10.253906 -3.738281 10.039062 -3.957031 9.777344 -4.136719 L 8.652344 -4.894531 L 9.558594 -5.898438 C 9.839844 -6.210938 9.980469 -6.527344 9.980469 -6.851562 C 9.980469 -7.140625 9.933594 -7.386719 9.84375 -7.582031 C 9.789062 -7.695312 9.683594 -7.789062 9.53125 -7.871094 C 9.300781 -7.988281 8.933594 -8.042969 8.417969 -8.042969 L 0.355469 -8.042969 L 0.355469 -9.222656 L 1.535156 -9.222656 Z M 3.453125 -7.039062 L 7.167969 -7.039062 C 7.265625 -7.039062 7.359375 -7.046875 7.445312 -7.058594 C 7.316406 -7.039062 7.203125 -6.984375 7.105469 -6.886719 C 7.011719 -6.792969 6.949219 -6.691406 6.914062 -6.578125 C 6.90625 -6.554688 6.902344 -6.53125 6.898438 -6.511719 L 6.898438 -6.507812 C 6.898438 -6.511719 6.898438 -6.519531 6.898438 -6.519531 C 6.898438 -6.519531 6.898438 -6.519531 6.898438 -6.515625 C 6.902344 -6.496094 6.90625 -6.476562 6.914062 -6.449219 C 6.949219 -6.328125 7.019531 -6.214844 7.125 -6.117188 C 7.21875 -6.027344 7.324219 -5.976562 7.445312 -5.960938 C 7.359375 -5.972656 7.265625 -5.976562 7.167969 -5.976562 L 3.453125 -5.976562 L 3.453125 -7.152344 L 4.628906 -7.152344 L 4.628906 -5.863281 L 3.453125 -5.863281 Z M 2.273438 -4.683594 L 2.273438 -8.332031 L 7.167969 -8.332031 C 7.367188 -8.332031 7.558594 -8.320312 7.746094 -8.296875 C 8.136719 -8.246094 8.472656 -8.085938 8.75 -7.820312 C 9.085938 -7.503906 9.253906 -7.0625 9.253906 -6.507812 C 9.253906 -5.972656 9.09375 -5.542969 8.769531 -5.222656 C 8.488281 -4.941406 8.148438 -4.773438 7.746094 -4.722656 C 7.558594 -4.695312 7.367188 -4.683594 7.167969 -4.683594 Z M 3.453125 -3.46875 L 7.800781 -3.46875 C 7.898438 -3.46875 7.992188 -3.476562 8.078125 -3.488281 C 7.957031 -3.472656 7.851562 -3.417969 7.757812 -3.328125 C 7.65625 -3.230469 7.585938 -3.125 7.546875 -3.003906 C 7.539062 -2.976562 7.535156 -2.949219 7.53125 -2.929688 L 7.53125 -2.925781 C 7.53125 -2.929688 7.53125 -2.933594 7.53125 -2.9375 C 7.53125 -2.9375 7.53125 -2.933594 7.53125 -2.933594 C 7.535156 -2.914062 7.539062 -2.890625 7.546875 -2.867188 C 7.582031 -2.742188 7.652344 -2.632812 7.757812 -2.53125 C 7.851562 -2.445312 7.957031 -2.390625 8.078125 -2.375 C 7.992188 -2.386719 7.898438 -2.394531 7.800781 -2.394531 L 3.453125 -2.394531 L 3.453125 -3.570312 L 4.628906 -3.570312 L 4.628906 -2.292969 L 3.453125 -2.292969 Z M 2.273438 -1.113281 L 2.273438 -4.746094 L 7.800781 -4.746094 C 8 -4.746094 8.191406 -4.734375 8.378906 -4.710938 C 8.769531 -4.660156 9.105469 -4.503906 9.382812 -4.238281 C 9.71875 -3.917969 9.886719 -3.480469 9.886719 -2.925781 C 9.886719 -2.378906 9.71875 -1.945312 9.382812 -1.625 C 9.105469 -1.359375 8.769531 -1.203125 8.378906 -1.152344 C 8.191406 -1.125 8 -1.113281 7.800781 -1.113281 Z M 2.273438 -1.113281 "/></g></g><g style="fill:#000000;fill-opacity:1;"><g transform="translate(17.253055, 17.058603)"><path style="stroke:none" d="M 6.019531 1.308594 C 3.699219 1.308594 1.96875 0.816406 0.828125 -0.171875 C 0.222656 -0.695312 -0.230469 -1.347656 -0.53125 -2.125 C -0.8125 -2.855469 -0.953125 -3.6875 -0.953125 -4.625 C -0.953125 -5.558594 -0.8125 -6.386719 -0.53125 -7.117188 C -0.230469 -7.890625 0.226562 -8.539062 0.832031 -9.058594 C 1.972656 -10.042969 3.699219 -10.53125 6.019531 -10.53125 C 8.332031 -10.53125 10.058594 -10.042969 11.199219 -9.0625 C 11.8125 -8.539062 12.265625 -7.890625 12.570312 -7.117188 C 12.851562 -6.390625 12.996094 -5.558594 12.996094 -4.625 C 12.996094 -3.691406 12.851562 -2.859375 12.570312 -2.128906 C 12.269531 -1.355469 11.8125 -0.703125 11.207031 -0.175781 C 10.0625 0.8125 8.332031 1.308594 6.019531 1.308594 Z M 6.019531 -1.046875 C 6.925781 -1.046875 7.695312 -1.132812 8.332031 -1.304688 C 8.894531 -1.457031 9.335938 -1.675781 9.664062 -1.957031 C 10.3125 -2.519531 10.640625 -3.410156 10.640625 -4.625 C 10.640625 -5.835938 10.316406 -6.71875 9.667969 -7.273438 C 9.34375 -7.554688 8.898438 -7.769531 8.332031 -7.921875 C 7.699219 -8.089844 6.925781 -8.175781 6.019531 -8.175781 C 5.109375 -8.175781 4.335938 -8.089844 3.699219 -7.921875 C 3.136719 -7.769531 2.691406 -7.554688 2.367188 -7.277344 C 1.722656 -6.71875 1.402344 -5.835938 1.402344 -4.625 C 1.402344 -3.402344 1.726562 -2.511719 2.371094 -1.949219 C 2.695312 -1.671875 3.136719 -1.457031 3.699219 -1.304688 C 4.335938 -1.132812 5.109375 -1.046875 6.019531 -1.046875 Z M 6.019531 -3.65625 C 6.566406 -3.65625 6.953125 -3.710938 7.183594 -3.816406 C 7.324219 -3.882812 7.410156 -3.949219 7.441406 -4.019531 C 7.519531 -4.179688 7.558594 -4.382812 7.558594 -4.625 C 7.558594 -4.871094 7.519531 -5.070312 7.445312 -5.226562 C 7.417969 -5.285156 7.339844 -5.34375 7.207031 -5.40625 C 6.972656 -5.515625 6.578125 -5.566406 6.019531 -5.566406 C 5.46875 -5.566406 5.074219 -5.515625 4.835938 -5.40625 C 4.710938 -5.351562 4.636719 -5.296875 4.613281 -5.242188 C 4.535156 -5.078125 4.496094 -4.871094 4.496094 -4.625 C 4.496094 -4.375 4.535156 -4.164062 4.613281 -3.996094 C 4.640625 -3.933594 4.71875 -3.875 4.847656 -3.816406 C 5.082031 -3.707031 5.472656 -3.65625 6.019531 -3.65625 Z M 6.019531 -1.300781 C 5.128906 -1.300781 4.410156 -1.425781 3.863281 -1.675781 C 3.207031 -1.980469 2.746094 -2.425781 2.472656 -3.011719 C 2.253906 -3.492188 2.140625 -4.03125 2.140625 -4.625 C 2.140625 -5.21875 2.253906 -5.757812 2.476562 -6.234375 C 2.75 -6.820312 3.214844 -7.261719 3.871094 -7.554688 C 4.414062 -7.800781 5.132812 -7.921875 6.019531 -7.921875 C 6.921875 -7.921875 7.644531 -7.796875 8.191406 -7.542969 C 8.84375 -7.246094 9.304688 -6.808594 9.574219 -6.234375 C 9.800781 -5.757812 9.914062 -5.222656 9.914062 -4.625 C 9.914062 -4.023438 9.796875 -3.484375 9.566406 -3 C 9.292969 -2.429688 8.832031 -1.992188 8.191406 -1.6875 C 7.640625 -1.429688 6.917969 -1.300781 6.019531 -1.300781 Z M 6.019531 -1.300781 "/></g></g><g style="fill:#000000;fill-opacity:1;"><g transform="translate(28.372339, 17.058603)"><path style="stroke:none" d="M 2.339844 0.390625 L -1.4375 -10.398438 L 4.402344 -10.398438 L 6.839844 -2.867188 L 5.71875 -2.503906 L 4.601562 -2.882812 L 7.152344 -10.398438 L 12.554688 -10.398438 L 15.117188 -2.882812 L 14.003906 -2.503906 L 12.882812 -2.863281 L 15.308594 -10.398438 L 21.140625 -10.398438 L 17.105469 1.175781 L 10.902344 1.175781 L 8.738281 -5.375 L 9.855469 -5.742188 L 10.972656 -5.375 L 8.808594 1.175781 L 2.617188 1.175781 Z M 4.5625 -0.390625 L 3.453125 0 L 3.453125 -1.175781 L 7.957031 -1.175781 L 7.957031 0 L 6.839844 -0.371094 L 9.855469 -9.5 L 12.871094 -0.371094 L 11.75 0 L 11.75 -1.175781 L 16.269531 -1.175781 L 16.269531 0 L 15.160156 -0.386719 L 18.375 -9.609375 L 19.484375 -9.222656 L 19.484375 -8.042969 L 16.164062 -8.042969 L 16.164062 -9.222656 L 17.285156 -8.863281 L 14.039062 1.242188 L 10.597656 -8.84375 L 11.710938 -9.222656 L 11.710938 -8.042969 L 7.996094 -8.042969 L 7.996094 -9.222656 L 9.113281 -8.84375 L 5.691406 1.242188 L 2.421875 -8.859375 L 3.542969 -9.222656 L 3.542969 -8.042969 L 0.222656 -8.042969 L 0.222656 -9.222656 L 1.335938 -9.609375 Z M 4.5625 -0.390625 "/></g></g><g style="fill:#000000;fill-opacity:1;"><g transform="translate(47.949653, 17.058603)"><path style="stroke:none" d="M -0.820312 0 L -0.820312 -10.398438 L 7.167969 -10.398438 C 7.875 -10.398438 8.554688 -10.28125 9.203125 -10.046875 C 9.867188 -9.804688 10.464844 -9.441406 10.992188 -8.957031 C 11.535156 -8.460938 11.957031 -7.839844 12.261719 -7.097656 C 12.558594 -6.375 12.707031 -5.546875 12.707031 -4.609375 C 12.707031 -3.675781 12.558594 -2.847656 12.261719 -2.125 C 11.957031 -1.378906 11.535156 -0.761719 10.992188 -0.265625 C 10.464844 0.21875 9.867188 0.582031 9.203125 0.824219 C 8.554688 1.058594 7.875 1.175781 7.167969 1.175781 L -0.820312 1.175781 Z M 1.535156 0 L 0.355469 0 L 0.355469 -1.175781 L 7.167969 -1.175781 C 7.597656 -1.175781 8.007812 -1.25 8.398438 -1.390625 C 8.769531 -1.523438 9.105469 -1.730469 9.402344 -2 C 9.683594 -2.261719 9.910156 -2.597656 10.082031 -3.015625 C 10.261719 -3.453125 10.351562 -3.984375 10.351562 -4.609375 C 10.351562 -5.238281 10.261719 -5.769531 10.082031 -6.207031 C 9.910156 -6.625 9.683594 -6.960938 9.402344 -7.21875 C 9.105469 -7.492188 8.769531 -7.695312 8.398438 -7.832031 C 8.007812 -7.972656 7.597656 -8.042969 7.167969 -8.042969 L 0.355469 -8.042969 L 0.355469 -9.222656 L 1.535156 -9.222656 Z M 3.453125 -3.785156 L 6.152344 -3.785156 C 6.375 -3.785156 6.59375 -3.800781 6.808594 -3.828125 C 6.925781 -3.84375 7.027344 -3.878906 7.117188 -3.929688 C 7.136719 -3.9375 7.160156 -3.972656 7.191406 -4.03125 C 7.207031 -4.0625 7.222656 -4.117188 7.234375 -4.191406 C 7.257812 -4.304688 7.265625 -4.445312 7.265625 -4.609375 C 7.265625 -4.777344 7.257812 -4.917969 7.234375 -5.03125 C 7.222656 -5.105469 7.207031 -5.160156 7.191406 -5.191406 C 7.160156 -5.25 7.136719 -5.28125 7.117188 -5.292969 C 7.027344 -5.34375 6.925781 -5.378906 6.808594 -5.394531 C 6.59375 -5.421875 6.375 -5.4375 6.152344 -5.4375 L 3.453125 -5.4375 L 3.453125 -6.613281 L 4.628906 -6.613281 L 4.628906 -2.609375 L 3.453125 -2.609375 Z M 2.273438 -1.429688 L 2.273438 -7.792969 L 6.152344 -7.792969 C 6.476562 -7.792969 6.796875 -7.769531 7.117188 -7.726562 C 7.535156 -7.671875 7.925781 -7.542969 8.28125 -7.339844 C 8.710938 -7.097656 9.046875 -6.734375 9.289062 -6.257812 C 9.511719 -5.824219 9.621094 -5.273438 9.621094 -4.609375 C 9.621094 -3.949219 9.511719 -3.398438 9.289062 -2.964844 C 9.046875 -2.484375 8.710938 -2.125 8.28125 -1.882812 C 7.925781 -1.679688 7.535156 -1.550781 7.117188 -1.492188 C 6.796875 -1.453125 6.476562 -1.429688 6.152344 -1.429688 Z M 2.273438 -1.429688 "/></g></g><g style="fill:#000000;fill-opacity:1;"><g transform="translate(59.661791, 17.058603)"><path style="stroke:none" d="M 6.019531 1.308594 C 3.699219 1.308594 1.96875 0.816406 0.828125 -0.171875 C 0.222656 -0.695312 -0.230469 -1.347656 -0.53125 -2.125 C -0.8125 -2.855469 -0.953125 -3.6875 -0.953125 -4.625 C -0.953125 -5.558594 -0.8125 -6.386719 -0.53125 -7.117188 C -0.230469 -7.890625 0.226562 -8.539062 0.832031 -9.058594 C 1.972656 -10.042969 3.699219 -10.53125 6.019531 -10.53125 C 8.332031 -10.53125 10.058594 -10.042969 11.199219 -9.0625 C 11.8125 -8.539062 12.265625 -7.890625 12.570312 -7.117188 C 12.851562 -6.390625 12.996094 -5.558594 12.996094 -4.625 C 12.996094 -3.691406 12.851562 -2.859375 12.570312 -2.128906 C 12.269531 -1.355469 11.8125 -0.703125 11.207031 -0.175781 C 10.0625 0.8125 8.332031 1.308594 6.019531 1.308594 Z M 6.019531 -1.046875 C 6.925781 -1.046875 7.695312 -1.132812 8.332031 -1.304688 C 8.894531 -1.457031 9.335938 -1.675781 9.664062 -1.957031 C 10.3125 -2.519531 10.640625 -3.410156 10.640625 -4.625 C 10.640625 -5.835938 10.316406 -6.71875 9.667969 -7.273438 C 9.34375 -7.554688 8.898438 -7.769531 8.332031 -7.921875 C 7.699219 -8.089844 6.925781 -8.175781 6.019531 -8.175781 C 5.109375 -8.175781 4.335938 -8.089844 3.699219 -7.921875 C 3.136719 -7.769531 2.691406 -7.554688 2.367188 -7.277344 C 1.722656 -6.71875 1.402344 -5.835938 1.402344 -4.625 C 1.402344 -3.402344 1.726562 -2.511719 2.371094 -1.949219 C 2.695312 -1.671875 3.136719 -1.457031 3.699219 -1.304688 C 4.335938 -1.132812 5.109375 -1.046875 6.019531 -1.046875 Z M 6.019531 -3.65625 C 6.566406 -3.65625 6.953125 -3.710938 7.183594 -3.816406 C 7.324219 -3.882812 7.410156 -3.949219 7.441406 -4.019531 C 7.519531 -4.179688 7.558594 -4.382812 7.558594 -4.625 C 7.558594 -4.871094 7.519531 -5.070312 7.445312 -5.226562 C 7.417969 -5.285156 7.339844 -5.34375 7.207031 -5.40625 C 6.972656 -5.515625 6.578125 -5.566406 6.019531 -5.566406 C 5.46875 -5.566406 5.074219 -5.515625 4.835938 -5.40625 C 4.710938 -5.351562 4.636719 -5.296875 4.613281 -5.242188 C 4.535156 -5.078125 4.496094 -4.871094 4.496094 -4.625 C 4.496094 -4.375 4.535156 -4.164062 4.613281 -3.996094 C 4.640625 -3.933594 4.71875 -3.875 4.847656 -3.816406 C 5.082031 -3.707031 5.472656 -3.65625 6.019531 -3.65625 Z M 6.019531 -1.300781 C 5.128906 -1.300781 4.410156 -1.425781 3.863281 -1.675781 C 3.207031 -1.980469 2.746094 -2.425781 2.472656 -3.011719 C 2.253906 -3.492188 2.140625 -4.03125 2.140625 -4.625 C 2.140625 -5.21875 2.253906 -5.757812 2.476562 -6.234375 C 2.75 -6.820312 3.214844 -7.261719 3.871094 -7.554688 C 4.414062 -7.800781 5.132812 -7.921875 6.019531 -7.921875 C 6.921875 -7.921875 7.644531 -7.796875 8.191406 -7.542969 C 8.84375 -7.246094 9.304688 -6.808594 9.574219 -6.234375 C 9.800781 -5.757812 9.914062 -5.222656 9.914062 -4.625 C 9.914062 -4.023438 9.796875 -3.484375 9.566406 -3 C 9.292969 -2.429688 8.832031 -1.992188 8.191406 -1.6875 C 7.640625 -1.429688 6.917969 -1.300781 6.019531 -1.300781 Z M 6.019531 -1.300781 "/></g></g><g style="fill:#000000;fill-opacity:1;"><g transform="translate(70.781069, 17.058603)"><path style="stroke:none" d="M 2.339844 0.390625 L -1.4375 -10.398438 L 4.402344 -10.398438 L 6.839844 -2.867188 L 5.71875 -2.503906 L 4.601562 -2.882812 L 7.152344 -10.398438 L 12.554688 -10.398438 L 15.117188 -2.882812 L 14.003906 -2.503906 L 12.882812 -2.863281 L 15.308594 -10.398438 L 21.140625 -10.398438 L 17.105469 1.175781 L 10.902344 1.175781 L 8.738281 -5.375 L 9.855469 -5.742188 L 10.972656 -5.375 L 8.808594 1.175781 L 2.617188 1.175781 Z M 4.5625 -0.390625 L 3.453125 0 L 3.453125 -1.175781 L 7.957031 -1.175781 L 7.957031 0 L 6.839844 -0.371094 L 9.855469 -9.5 L 12.871094 -0.371094 L 11.75 0 L 11.75 -1.175781 L 16.269531 -1.175781 L 16.269531 0 L 15.160156 -0.386719 L 18.375 -9.609375 L 19.484375 -9.222656 L 19.484375 -8.042969 L 16.164062 -8.042969 L 16.164062 -9.222656 L 17.285156 -8.863281 L 14.039062 1.242188 L 10.597656 -8.84375 L 11.710938 -9.222656 L 11.710938 -8.042969 L 7.996094 -8.042969 L 7.996094 -9.222656 L 9.113281 -8.84375 L 5.691406 1.242188 L 2.421875 -8.859375 L 3.542969 -9.222656 L 3.542969 -8.042969 L 0.222656 -8.042969 L 0.222656 -9.222656 L 1.335938 -9.609375 Z M 4.5625 -0.390625 "/></g></g><g style="fill:#000000;fill-opacity:1;"><g transform="translate(90.358386, 17.058603)"><path style="stroke:none" d="M -0.820312 0 L -0.820312 -10.398438 L 5.003906 -10.398438 L 10.074219 -4.113281 L 9.15625 -3.371094 L 7.980469 -3.371094 L 7.980469 -10.398438 L 13.417969 -10.398438 L 13.417969 1.175781 L 7.605469 1.175781 L 2.535156 -5.109375 L 3.453125 -5.847656 L 4.628906 -5.847656 L 4.628906 1.175781 L -0.820312 1.175781 Z M 1.535156 0 L 0.355469 0 L 0.355469 -1.175781 L 3.453125 -1.175781 L 3.453125 0 L 2.273438 0 L 2.273438 -9.1875 L 9.085938 -0.738281 L 8.167969 0 L 8.167969 -1.175781 L 12.238281 -1.175781 L 12.238281 0 L 11.0625 0 L 11.0625 -9.222656 L 12.238281 -9.222656 L 12.238281 -8.042969 L 9.15625 -8.042969 L 9.15625 -9.222656 L 10.332031 -9.222656 L 10.332031 -0.0351562 L 3.523438 -8.484375 L 4.441406 -9.222656 L 4.441406 -8.042969 L 0.355469 -8.042969 L 0.355469 -9.222656 L 1.535156 -9.222656 Z M 1.535156 0 "/></g></g><g style="fill:#000000;fill-opacity:1;"><g transform="translate(102.966541, 17.058603)"><path style="stroke:none" d=""/></g></g><g style="fill:#ffffff;fill-opacity:1;"><g transform="translate(5.54092, 17.058603)"><path style="stroke:none" d="M 0.359375 0 L 0.359375 -9.21875 L 8.421875 -9.21875 C 9.117188 -9.21875 9.664062 -9.113281 10.0625 -8.90625 C 10.457031 -8.707031 10.738281 -8.429688 10.90625 -8.078125 C 11.070312 -7.722656 11.15625 -7.3125 11.15625 -6.84375 C 11.15625 -6.226562 10.914062 -5.648438 10.4375 -5.109375 C 10.832031 -4.835938 11.15625 -4.5 11.40625 -4.09375 C 11.65625 -3.6875 11.78125 -3.226562 11.78125 -2.71875 C 11.78125 -2.207031 11.675781 -1.742188 11.46875 -1.328125 C 11.257812 -0.921875 10.9375 -0.597656 10.5 -0.359375 C 10.0625 -0.117188 9.488281 0 8.78125 0 Z M 3.453125 -5.859375 L 7.171875 -5.859375 C 7.316406 -5.859375 7.457031 -5.867188 7.59375 -5.890625 C 7.726562 -5.910156 7.84375 -5.960938 7.9375 -6.046875 C 8.03125 -6.140625 8.078125 -6.289062 8.078125 -6.5 C 8.078125 -6.726562 8.03125 -6.882812 7.9375 -6.96875 C 7.84375 -7.050781 7.726562 -7.101562 7.59375 -7.125 C 7.457031 -7.144531 7.316406 -7.15625 7.171875 -7.15625 L 3.453125 -7.15625 Z M 3.453125 -2.296875 L 7.796875 -2.296875 C 7.941406 -2.296875 8.082031 -2.300781 8.21875 -2.3125 C 8.363281 -2.332031 8.476562 -2.382812 8.5625 -2.46875 C 8.65625 -2.5625 8.703125 -2.710938 8.703125 -2.921875 C 8.703125 -3.140625 8.65625 -3.289062 8.5625 -3.375 C 8.476562 -3.46875 8.363281 -3.519531 8.21875 -3.53125 C 8.082031 -3.550781 7.941406 -3.5625 7.796875 -3.5625 L 3.453125 -3.5625 Z M 3.453125 -2.296875 "/></g></g><g style="fill:#ffffff;fill-opacity:1;"><g transform="translate(17.253055, 17.058603)"><path style="stroke:none" d="M 6.015625 0.125 C 3.992188 0.125 2.519531 -0.269531 1.59375 -1.0625 C 0.675781 -1.851562 0.21875 -3.039062 0.21875 -4.625 C 0.21875 -6.195312 0.675781 -7.378906 1.59375 -8.171875 C 2.519531 -8.960938 3.992188 -9.359375 6.015625 -9.359375 C 8.035156 -9.359375 9.503906 -8.960938 10.421875 -8.171875 C 11.347656 -7.378906 11.8125 -6.195312 11.8125 -4.625 C 11.8125 -3.050781 11.347656 -1.863281 10.421875 -1.0625 C 9.503906 -0.269531 8.035156 0.125 6.015625 0.125 Z M 6.015625 -2.46875 C 6.734375 -2.46875 7.285156 -2.5625 7.671875 -2.75 C 8.066406 -2.9375 8.34375 -3.1875 8.5 -3.5 C 8.65625 -3.820312 8.734375 -4.195312 8.734375 -4.625 C 8.734375 -5.039062 8.65625 -5.40625 8.5 -5.71875 C 8.351562 -6.039062 8.082031 -6.289062 7.6875 -6.46875 C 7.300781 -6.65625 6.742188 -6.75 6.015625 -6.75 C 5.296875 -6.75 4.738281 -6.660156 4.34375 -6.484375 C 3.957031 -6.304688 3.6875 -6.054688 3.53125 -5.734375 C 3.382812 -5.410156 3.3125 -5.039062 3.3125 -4.625 C 3.3125 -4.195312 3.382812 -3.820312 3.53125 -3.5 C 3.6875 -3.175781 3.957031 -2.921875 4.34375 -2.734375 C 4.738281 -2.554688 5.296875 -2.46875 6.015625 -2.46875 Z M 6.015625 -2.46875 "/></g></g><g style="fill:#ffffff;fill-opacity:1;"><g transform="translate(28.372339, 17.058603)"><path style="stroke:none" d="M 3.453125 0 L 0.21875 -9.21875 L 3.546875 -9.21875 L 5.71875 -2.5 L 8 -9.21875 L 11.703125 -9.21875 L 14 -2.5 L 16.15625 -9.21875 L 19.484375 -9.21875 L 16.265625 0 L 11.75 0 L 9.859375 -5.75 L 7.953125 0 Z M 3.453125 0 "/></g></g><g style="fill:#ffffff;fill-opacity:1;"><g transform="translate(47.949653, 17.058603)"><path style="stroke:none" d="M 0.359375 0 L 0.359375 -9.21875 L 7.171875 -9.21875 C 7.734375 -9.21875 8.273438 -9.125 8.796875 -8.9375 C 9.316406 -8.75 9.78125 -8.460938 10.1875 -8.078125 C 10.601562 -7.703125 10.929688 -7.222656 11.171875 -6.640625 C 11.410156 -6.066406 11.53125 -5.390625 11.53125 -4.609375 C 11.53125 -3.828125 11.410156 -3.144531 11.171875 -2.5625 C 10.929688 -1.988281 10.601562 -1.507812 10.1875 -1.125 C 9.78125 -0.75 9.316406 -0.46875 8.796875 -0.28125 C 8.273438 -0.09375 7.734375 0 7.171875 0 Z M 3.453125 -2.609375 L 6.15625 -2.609375 C 6.425781 -2.609375 6.691406 -2.625 6.953125 -2.65625 C 7.222656 -2.695312 7.46875 -2.78125 7.6875 -2.90625 C 7.914062 -3.03125 8.097656 -3.226562 8.234375 -3.5 C 8.367188 -3.769531 8.4375 -4.140625 8.4375 -4.609375 C 8.4375 -5.085938 8.367188 -5.457031 8.234375 -5.71875 C 8.097656 -5.988281 7.914062 -6.1875 7.6875 -6.3125 C 7.46875 -6.4375 7.222656 -6.515625 6.953125 -6.546875 C 6.691406 -6.585938 6.425781 -6.609375 6.15625 -6.609375 L 3.453125 -6.609375 Z M 3.453125 -2.609375 "/></g></g><g style="fill:#ffffff;fill-opacity:1;"><g transform="translate(59.661791, 17.058603)"><path style="stroke:none" d="M 6.015625 0.125 C 3.992188 0.125 2.519531 -0.269531 1.59375 -1.0625 C 0.675781 -1.851562 0.21875 -3.039062 0.21875 -4.625 C 0.21875 -6.195312 0.675781 -7.378906 1.59375 -8.171875 C 2.519531 -8.960938 3.992188 -9.359375 6.015625 -9.359375 C 8.035156 -9.359375 9.503906 -8.960938 10.421875 -8.171875 C 11.347656 -7.378906 11.8125 -6.195312 11.8125 -4.625 C 11.8125 -3.050781 11.347656 -1.863281 10.421875 -1.0625 C 9.503906 -0.269531 8.035156 0.125 6.015625 0.125 Z M 6.015625 -2.46875 C 6.734375 -2.46875 7.285156 -2.5625 7.671875 -2.75 C 8.066406 -2.9375 8.34375 -3.1875 8.5 -3.5 C 8.65625 -3.820312 8.734375 -4.195312 8.734375 -4.625 C 8.734375 -5.039062 8.65625 -5.40625 8.5 -5.71875 C 8.351562 -6.039062 8.082031 -6.289062 7.6875 -6.46875 C 7.300781 -6.65625 6.742188 -6.75 6.015625 -6.75 C 5.296875 -6.75 4.738281 -6.660156 4.34375 -6.484375 C 3.957031 -6.304688 3.6875 -6.054688 3.53125 -5.734375 C 3.382812 -5.410156 3.3125 -5.039062 3.3125 -4.625 C 3.3125 -4.195312 3.382812 -3.820312 3.53125 -3.5 C 3.6875 -3.175781 3.957031 -2.921875 4.34375 -2.734375 C 4.738281 -2.554688 5.296875 -2.46875 6.015625 -2.46875 Z M 6.015625 -2.46875 "/></g></g><g style="fill:#ffffff;fill-opacity:1;"><g transform="translate(70.781069, 17.058603)"><path style="stroke:none" d="M 3.453125 0 L 0.21875 -9.21875 L 3.546875 -9.21875 L 5.71875 -2.5 L 8 -9.21875 L 11.703125 -9.21875 L 14 -2.5 L 16.15625 -9.21875 L 19.484375 -9.21875 L 16.265625 0 L 11.75 0 L 9.859375 -5.75 L 7.953125 0 Z M 3.453125 0 "/></g></g><g style="fill:#ffffff;fill-opacity:1;"><g transform="translate(90.358386, 17.058603)"><path style="stroke:none" d="M 0.359375 0 L 0.359375 -9.21875 L 4.4375 -9.21875 L 9.15625 -3.375 L 9.15625 -9.21875 L 12.234375 -9.21875 L 12.234375 0 L 8.171875 0 L 3.453125 -5.84375 L 3.453125 0 Z M 0.359375 0 "/></g></g><g style="fill:#ffffff;fill-opacity:1;"><g transform="translate(102.966541, 17.058603)"><path style="stroke:none" d=""/></g></g><g style="fill:#ffffff;fill-opacity:1;"><g transform="translate(35.0622, 23.183617)"><path style="stroke:none" d="M 1.828125 0.046875 C 1.398438 0.046875 1.039062 -0.101562 0.75 -0.40625 C 0.457031 -0.695312 0.3125 -1.050781 0.3125 -1.46875 C 0.3125 -1.894531 0.457031 -2.253906 0.75 -2.546875 C 1.039062 -2.835938 1.398438 -2.984375 1.828125 -2.984375 C 2.015625 -2.984375 2.207031 -2.941406 2.40625 -2.859375 C 2.59375 -2.773438 2.753906 -2.664062 2.890625 -2.53125 L 2.703125 -2.34375 C 2.460938 -2.59375 2.171875 -2.71875 1.828125 -2.71875 C 1.472656 -2.71875 1.175781 -2.597656 0.9375 -2.359375 C 0.695312 -2.117188 0.578125 -1.820312 0.578125 -1.46875 C 0.578125 -1.125 0.695312 -0.832031 0.9375 -0.59375 C 1.175781 -0.351562 1.472656 -0.234375 1.828125 -0.234375 C 2.171875 -0.234375 2.460938 -0.351562 2.703125 -0.59375 L 2.890625 -0.40625 C 2.753906 -0.269531 2.59375 -0.160156 2.40625 -0.078125 C 2.207031 0.00390625 2.015625 0.046875 1.828125 0.046875 Z M 1.828125 0.046875 "/></g></g><g style="fill:#ffffff;fill-opacity:1;"><g transform="translate(39.300453, 23.183617)"><path style="stroke:none" d="M 1.765625 0.046875 C 1.347656 0.046875 0.992188 -0.101562 0.703125 -0.40625 C 0.410156 -0.695312 0.265625 -1.050781 0.265625 -1.46875 C 0.265625 -1.882812 0.410156 -2.242188 0.703125 -2.546875 C 0.992188 -2.835938 1.347656 -2.984375 1.765625 -2.984375 C 2.179688 -2.984375 2.539062 -2.835938 2.84375 -2.546875 C 3.132812 -2.242188 3.28125 -1.882812 3.28125 -1.46875 C 3.28125 -1.050781 3.132812 -0.695312 2.84375 -0.40625 C 2.539062 -0.101562 2.179688 0.046875 1.765625 0.046875 Z M 1.765625 -0.234375 C 2.109375 -0.234375 2.40625 -0.351562 2.65625 -0.59375 C 2.894531 -0.832031 3.015625 -1.125 3.015625 -1.46875 C 3.015625 -1.8125 2.894531 -2.109375 2.65625 -2.359375 C 2.40625 -2.597656 2.109375 -2.71875 1.765625 -2.71875 C 1.421875 -2.71875 1.128906 -2.597656 0.890625 -2.359375 C 0.640625 -2.109375 0.515625 -1.8125 0.515625 -1.46875 C 0.515625 -1.125 0.640625 -0.832031 0.890625 -0.59375 C 1.128906 -0.351562 1.421875 -0.234375 1.765625 -0.234375 Z M 1.765625 -0.234375 "/></g></g><g style="fill:#ffffff;fill-opacity:1;"><g transform="translate(44.096473, 23.183617)"><path style="stroke:none" d="M 0.625 -0.265625 L 1.734375 -0.265625 L 1.734375 0 L 0.359375 0 L 0.359375 -2.9375 L 0.625 -2.9375 Z M 0.625 -0.265625 "/></g></g><g style="fill:#ffffff;fill-opacity:1;"><g transform="translate(47.132774, 23.183617)"><path style="stroke:none" d="M 0.625 -0.265625 L 1.734375 -0.265625 L 1.734375 0 L 0.359375 0 L 0.359375 -2.9375 L 0.625 -2.9375 Z M 0.625 -0.265625 "/></g></g><g style="fill:#ffffff;fill-opacity:1;"><g transform="translate(50.169075, 23.183617)"><path style="stroke:none" d="M 1.96875 -2.6875 L 0.65625 -2.6875 L 0.65625 -1.59375 L 1.796875 -1.59375 L 1.796875 -1.34375 L 0.65625 -1.34375 L 0.65625 -0.25 L 1.96875 -0.25 L 1.96875 0 L 0.390625 0 L 0.390625 -2.9375 L 1.96875 -2.9375 Z M 1.96875 -2.6875 "/></g></g><g style="fill:#ffffff;fill-opacity:1;"><g transform="translate(53.472478, 23.183617)"><path style="stroke:none" d="M 1.828125 0.046875 C 1.398438 0.046875 1.039062 -0.101562 0.75 -0.40625 C 0.457031 -0.695312 0.3125 -1.050781 0.3125 -1.46875 C 0.3125 -1.894531 0.457031 -2.253906 0.75 -2.546875 C 1.039062 -2.835938 1.398438 -2.984375 1.828125 -2.984375 C 2.015625 -2.984375 2.207031 -2.941406 2.40625 -2.859375 C 2.59375 -2.773438 2.753906 -2.664062 2.890625 -2.53125 L 2.703125 -2.34375 C 2.460938 -2.59375 2.171875 -2.71875 1.828125 -2.71875 C 1.472656 -2.71875 1.175781 -2.597656 0.9375 -2.359375 C 0.695312 -2.117188 0.578125 -1.820312 0.578125 -1.46875 C 0.578125 -1.125 0.695312 -0.832031 0.9375 -0.59375 C 1.175781 -0.351562 1.472656 -0.234375 1.828125 -0.234375 C 2.171875 -0.234375 2.460938 -0.351562 2.703125 -0.59375 L 2.890625 -0.40625 C 2.753906 -0.269531 2.59375 -0.160156 2.40625 -0.078125 C 2.207031 0.00390625 2.015625 0.046875 1.828125 0.046875 Z M 1.828125 0.046875 "/></g></g><g style="fill:#ffffff;fill-opacity:1;"><g transform="translate(57.789289, 23.183617)"><path style="stroke:none" d="M 1.96875 -2.9375 L 1.96875 -2.671875 L 1.140625 -2.671875 L 1.140625 0 L 0.875 0 L 0.875 -2.671875 L 0.046875 -2.671875 L 0.046875 -2.9375 Z M 1.96875 -2.9375 "/></g></g><g style="fill:#ffffff;fill-opacity:1;"><g transform="translate(61.057338, 23.183617)"><path style="stroke:none" d="M 0.390625 0 L 0.390625 -2.9375 L 0.65625 -2.9375 L 0.65625 0 Z M 0.390625 0 "/></g></g><g style="fill:#ffffff;fill-opacity:1;"><g transform="translate(63.351258, 23.183617)"><path style="stroke:none" d="M 1.765625 0.046875 C 1.347656 0.046875 0.992188 -0.101562 0.703125 -0.40625 C 0.410156 -0.695312 0.265625 -1.050781 0.265625 -1.46875 C 0.265625 -1.882812 0.410156 -2.242188 0.703125 -2.546875 C 0.992188 -2.835938 1.347656 -2.984375 1.765625 -2.984375 C 2.179688 -2.984375 2.539062 -2.835938 2.84375 -2.546875 C 3.132812 -2.242188 3.28125 -1.882812 3.28125 -1.46875 C 3.28125 -1.050781 3.132812 -0.695312 2.84375 -0.40625 C 2.539062 -0.101562 2.179688 0.046875 1.765625 0.046875 Z M 1.765625 -0.234375 C 2.109375 -0.234375 2.40625 -0.351562 2.65625 -0.59375 C 2.894531 -0.832031 3.015625 -1.125 3.015625 -1.46875 C 3.015625 -1.8125 2.894531 -2.109375 2.65625 -2.359375 C 2.40625 -2.597656 2.109375 -2.71875 1.765625 -2.71875 C 1.421875 -2.71875 1.128906 -2.597656 0.890625 -2.359375 C 0.640625 -2.109375 0.515625 -1.8125 0.515625 -1.46875 C 0.515625 -1.125 0.640625 -0.832031 0.890625 -0.59375 C 1.128906 -0.351562 1.421875 -0.234375 1.765625 -0.234375 Z M 1.765625 -0.234375 "/></g></g><g style="fill:#ffffff;fill-opacity:1;"><g transform="translate(68.147279, 23.183617)"><path style="stroke:none" d="M 2.46875 -2.9375 L 2.734375 -2.9375 L 2.734375 0 L 2.5 0 L 0.625 -2.484375 L 0.625 0 L 0.359375 0 L 0.359375 -2.9375 L 0.59375 -2.9375 L 2.46875 -0.453125 Z M 2.46875 -2.9375 "/></g></g></g></svg>