<svg xmlns="http://www.w3.org/2000/svg" xmlns:xlink="http://www.w3.org/1999/xlink" width="145" zoomAndPan="magnify" viewBox="0 0 108.75 30.000001" height="40" preserveAspectRatio="xMidYMid meet" version="1.2"><defs><clipPath id="319399d30c"><path d="M 1.632812 0 L 106.875 0 L 106.875 29.03125 L 1.632812 29.03125 Z M 1.632812 0 "/></clipPath></defs><g id="21221f2a14"><g clip-rule="nonzero" clip-path="url(#319399d30c)"><path style=" stroke:none;fill-rule:nonzero;fill:#ffffff;fill-opacity:1;" d="M 1.632812 0 L 106.875 0 L 106.875 29.03125 L 1.632812 29.03125 Z M 1.632812 0 "/><path style=" stroke:none;fill-rule:nonzero;fill:#ffffff;fill-opacity:1;" d="M 1.632812 0 L 106.875 0 L 106.875 29.03125 L 1.632812 29.03125 Z M 1.632812 0 "/></g><g style="fill:#e0feca;fill-opacity:1;"><g transform="translate(5.54092, 17.058603)"><path style="stroke:none" d="M -0.878906 0 L -0.878906 -10.457031 L 8.417969 -10.457031 C 9.320312 -10.457031 10.054688 -10.3125 10.628906 -10.019531 C 11.273438 -9.6875 11.738281 -9.21875 12.027344 -8.605469 C 12.273438 -8.085938 12.394531 -7.5 12.394531 -6.851562 C 12.394531 -5.910156 12.046875 -5.054688 11.351562 -4.285156 L 10.433594 -5.113281 L 11.125 -6.136719 C 11.675781 -5.765625 12.121094 -5.300781 12.464844 -4.746094 C 12.839844 -4.144531 13.027344 -3.464844 13.027344 -2.714844 C 13.027344 -2.003906 12.875 -1.355469 12.574219 -0.769531 C 12.246094 -0.140625 11.753906 0.359375 11.09375 0.71875 C 10.472656 1.0625 9.703125 1.234375 8.789062 1.234375 L -0.878906 1.234375 Z M 1.589844 0 L 0.355469 0 L 0.355469 -1.234375 L 8.789062 -1.234375 C 9.277344 -1.234375 9.652344 -1.304688 9.90625 -1.445312 C 10.125 -1.566406 10.28125 -1.71875 10.378906 -1.902344 C 10.496094 -2.132812 10.554688 -2.40625 10.554688 -2.714844 C 10.554688 -2.996094 10.492188 -3.242188 10.367188 -3.445312 C 10.207031 -3.699219 10 -3.914062 9.742188 -4.085938 L 8.5625 -4.882812 L 9.515625 -5.9375 C 9.789062 -6.238281 9.921875 -6.542969 9.921875 -6.851562 C 9.921875 -7.132812 9.878906 -7.367188 9.789062 -7.558594 C 9.742188 -7.660156 9.648438 -7.746094 9.503906 -7.820312 C 9.285156 -7.929688 8.921875 -7.988281 8.417969 -7.988281 L 0.355469 -7.988281 L 0.355469 -9.222656 L 1.589844 -9.222656 Z M 3.453125 -7.097656 L 7.167969 -7.097656 C 7.261719 -7.097656 7.351562 -7.101562 7.4375 -7.113281 C 7.292969 -7.09375 7.171875 -7.035156 7.0625 -6.925781 C 6.964844 -6.828125 6.898438 -6.71875 6.859375 -6.597656 C 6.847656 -6.554688 6.839844 -6.523438 6.839844 -6.507812 C 6.84375 -6.488281 6.851562 -6.460938 6.859375 -6.433594 C 6.898438 -6.300781 6.972656 -6.179688 7.085938 -6.074219 C 7.1875 -5.976562 7.304688 -5.917969 7.4375 -5.902344 C 7.351562 -5.914062 7.261719 -5.917969 7.167969 -5.917969 L 3.453125 -5.917969 L 3.453125 -7.152344 L 4.6875 -7.152344 L 4.6875 -5.863281 L 3.453125 -5.863281 Z M 2.214844 -4.628906 L 2.214844 -8.390625 L 7.167969 -8.390625 C 7.371094 -8.390625 7.566406 -8.375 7.753906 -8.351562 C 8.15625 -8.300781 8.503906 -8.136719 8.789062 -7.863281 C 9.136719 -7.53125 9.3125 -7.082031 9.3125 -6.507812 C 9.3125 -5.957031 9.144531 -5.515625 8.8125 -5.179688 C 8.519531 -4.890625 8.167969 -4.71875 7.753906 -4.664062 C 7.566406 -4.640625 7.371094 -4.628906 7.167969 -4.628906 Z M 3.453125 -3.527344 L 7.800781 -3.527344 C 7.894531 -3.527344 7.984375 -3.53125 8.070312 -3.542969 C 7.9375 -3.527344 7.820312 -3.46875 7.71875 -3.371094 C 7.609375 -3.265625 7.535156 -3.148438 7.492188 -3.019531 C 7.480469 -2.976562 7.472656 -2.945312 7.472656 -2.925781 C 7.476562 -2.902344 7.480469 -2.878906 7.492188 -2.851562 C 7.53125 -2.71875 7.605469 -2.597656 7.71875 -2.492188 C 7.820312 -2.394531 7.9375 -2.335938 8.070312 -2.320312 C 7.984375 -2.328125 7.894531 -2.335938 7.800781 -2.335938 L 3.453125 -2.335938 L 3.453125 -3.570312 L 4.6875 -3.570312 L 4.6875 -2.292969 L 3.453125 -2.292969 Z M 2.214844 -1.058594 L 2.214844 -4.804688 L 7.800781 -4.804688 C 8 -4.804688 8.195312 -4.792969 8.386719 -4.769531 C 8.789062 -4.71875 9.132812 -4.554688 9.421875 -4.28125 C 9.769531 -3.949219 9.945312 -3.496094 9.945312 -2.925781 C 9.945312 -2.359375 9.769531 -1.914062 9.421875 -1.582031 C 9.132812 -1.308594 8.789062 -1.144531 8.386719 -1.09375 C 8.195312 -1.070312 8 -1.058594 7.800781 -1.058594 Z M 2.214844 -1.058594 "/></g></g><g style="fill:#e0feca;fill-opacity:1;"><g transform="translate(17.253055, 17.058603)"><path style="stroke:none" d="M 6.019531 1.367188 C 3.683594 1.367188 1.941406 0.867188 0.792969 -0.125 C 0.179688 -0.660156 -0.28125 -1.316406 -0.585938 -2.101562 C -0.867188 -2.839844 -1.011719 -3.679688 -1.011719 -4.625 C -1.011719 -5.566406 -0.867188 -6.402344 -0.582031 -7.136719 C -0.277344 -7.917969 0.179688 -8.574219 0.792969 -9.105469 C 1.945312 -10.09375 3.6875 -10.589844 6.019531 -10.589844 C 8.34375 -10.589844 10.085938 -10.09375 11.238281 -9.105469 C 11.855469 -8.578125 12.316406 -7.921875 12.621094 -7.136719 C 12.910156 -6.402344 13.050781 -5.566406 13.050781 -4.625 C 13.050781 -3.683594 12.910156 -2.84375 12.621094 -2.109375 C 12.320312 -1.324219 11.859375 -0.667969 11.242188 -0.132812 C 10.089844 0.867188 8.347656 1.367188 6.019531 1.367188 Z M 6.019531 -1.101562 C 6.921875 -1.101562 7.6875 -1.1875 8.316406 -1.359375 C 8.871094 -1.511719 9.304688 -1.722656 9.625 -2 C 10.261719 -2.554688 10.582031 -3.429688 10.582031 -4.625 C 10.582031 -5.816406 10.265625 -6.6875 9.628906 -7.230469 C 9.3125 -7.503906 8.875 -7.714844 8.320312 -7.863281 C 7.6875 -8.035156 6.921875 -8.117188 6.019531 -8.117188 C 5.113281 -8.117188 4.347656 -8.035156 3.714844 -7.863281 C 3.160156 -7.714844 2.722656 -7.503906 2.40625 -7.230469 C 1.773438 -6.6875 1.460938 -5.820312 1.460938 -4.625 C 1.460938 -3.417969 1.777344 -2.542969 2.410156 -1.996094 C 2.726562 -1.71875 3.160156 -1.507812 3.714844 -1.359375 C 4.347656 -1.1875 5.117188 -1.101562 6.019531 -1.101562 Z M 6.019531 -3.710938 C 6.554688 -3.710938 6.9375 -3.765625 7.160156 -3.871094 C 7.285156 -3.929688 7.363281 -3.988281 7.390625 -4.046875 C 7.464844 -4.195312 7.5 -4.390625 7.5 -4.625 C 7.5 -4.859375 7.464844 -5.054688 7.394531 -5.203125 C 7.371094 -5.25 7.300781 -5.296875 7.183594 -5.351562 C 6.957031 -5.457031 6.570312 -5.511719 6.019531 -5.511719 C 5.476562 -5.511719 5.089844 -5.457031 4.859375 -5.355469 C 4.75 -5.304688 4.683594 -5.257812 4.664062 -5.214844 C 4.589844 -5.0625 4.554688 -4.863281 4.554688 -4.625 C 4.554688 -4.382812 4.59375 -4.179688 4.667969 -4.019531 C 4.6875 -3.972656 4.757812 -3.921875 4.871094 -3.867188 C 5.097656 -3.765625 5.480469 -3.710938 6.019531 -3.710938 Z M 6.019531 -1.242188 C 5.121094 -1.242188 4.390625 -1.371094 3.835938 -1.625 C 3.171875 -1.933594 2.699219 -2.386719 2.421875 -2.988281 C 2.195312 -3.476562 2.085938 -4.023438 2.085938 -4.625 C 2.085938 -5.226562 2.199219 -5.773438 2.425781 -6.257812 C 2.703125 -6.855469 3.175781 -7.308594 3.847656 -7.609375 C 4.398438 -7.855469 5.125 -7.980469 6.019531 -7.980469 C 6.929688 -7.980469 7.664062 -7.851562 8.21875 -7.597656 C 8.878906 -7.292969 9.351562 -6.84375 9.628906 -6.257812 C 9.855469 -5.773438 9.96875 -5.230469 9.96875 -4.625 C 9.96875 -4.015625 9.851562 -3.464844 9.617188 -2.976562 C 9.335938 -2.394531 8.871094 -1.945312 8.214844 -1.636719 C 7.65625 -1.375 6.925781 -1.242188 6.019531 -1.242188 Z M 6.019531 -1.242188 "/></g></g><g style="fill:#e0feca;fill-opacity:1;"><g transform="translate(28.372339, 17.058603)"><path style="stroke:none" d="M 2.285156 0.40625 L -1.515625 -10.457031 L 4.441406 -10.457031 L 6.894531 -2.882812 L 5.71875 -2.503906 L 4.546875 -2.898438 L 7.113281 -10.457031 L 12.597656 -10.457031 L 15.171875 -2.902344 L 14.003906 -2.503906 L 12.828125 -2.882812 L 15.265625 -10.457031 L 21.222656 -10.457031 L 17.148438 1.234375 L 10.859375 1.234375 L 8.683594 -5.355469 L 9.855469 -5.742188 L 11.027344 -5.355469 L 8.851562 1.234375 L 2.574219 1.234375 Z M 4.617188 -0.40625 L 3.453125 0 L 3.453125 -1.234375 L 7.957031 -1.234375 L 7.957031 0 L 6.785156 -0.386719 L 9.855469 -9.683594 L 12.925781 -0.386719 L 11.75 0 L 11.75 -1.234375 L 16.269531 -1.234375 L 16.269531 0 L 15.105469 -0.40625 L 18.320312 -9.628906 L 19.484375 -9.222656 L 19.484375 -7.988281 L 16.164062 -7.988281 L 16.164062 -9.222656 L 17.339844 -8.84375 L 14.039062 1.421875 L 10.542969 -8.824219 L 11.710938 -9.222656 L 11.710938 -7.988281 L 7.996094 -7.988281 L 7.996094 -9.222656 L 9.167969 -8.824219 L 5.691406 1.421875 L 2.367188 -8.84375 L 3.542969 -9.222656 L 3.542969 -7.988281 L 0.222656 -7.988281 L 0.222656 -9.222656 L 1.390625 -9.628906 Z M 4.617188 -0.40625 "/></g></g><g style="fill:#e0feca;fill-opacity:1;"><g transform="translate(47.949653, 17.058603)"><path style="stroke:none" d="M -0.878906 0 L -0.878906 -10.457031 L 7.167969 -10.457031 C 7.882812 -10.457031 8.570312 -10.339844 9.222656 -10.097656 C 9.894531 -9.855469 10.496094 -9.488281 11.03125 -9 C 11.578125 -8.5 12.007812 -7.871094 12.316406 -7.121094 C 12.613281 -6.390625 12.761719 -5.554688 12.761719 -4.609375 C 12.761719 -3.667969 12.613281 -2.832031 12.316406 -2.101562 C 12.007812 -1.351562 11.578125 -0.722656 11.03125 -0.222656 C 10.496094 0.265625 9.894531 0.632812 9.222656 0.878906 C 8.570312 1.117188 7.882812 1.234375 7.167969 1.234375 L -0.878906 1.234375 Z M 1.589844 0 L 0.355469 0 L 0.355469 -1.234375 L 7.167969 -1.234375 C 7.59375 -1.234375 7.996094 -1.304688 8.378906 -1.445312 C 8.742188 -1.578125 9.070312 -1.777344 9.363281 -2.042969 C 9.640625 -2.296875 9.863281 -2.628906 10.027344 -3.035156 C 10.203125 -3.464844 10.292969 -3.992188 10.292969 -4.609375 C 10.292969 -5.230469 10.203125 -5.753906 10.027344 -6.183594 C 9.863281 -6.59375 9.640625 -6.925781 9.363281 -7.179688 C 9.070312 -7.445312 8.742188 -7.644531 8.378906 -7.777344 C 7.996094 -7.917969 7.59375 -7.988281 7.167969 -7.988281 L 0.355469 -7.988281 L 0.355469 -9.222656 L 1.589844 -9.222656 Z M 3.453125 -3.84375 L 6.152344 -3.84375 C 6.371094 -3.84375 6.585938 -3.859375 6.800781 -3.886719 C 6.910156 -3.898438 7.007812 -3.929688 7.089844 -3.980469 C 7.105469 -3.996094 7.121094 -4.023438 7.140625 -4.058594 C 7.152344 -4.085938 7.167969 -4.132812 7.179688 -4.199219 C 7.199219 -4.3125 7.210938 -4.449219 7.210938 -4.609375 C 7.210938 -4.773438 7.199219 -4.910156 7.179688 -5.023438 C 7.167969 -5.089844 7.152344 -5.136719 7.140625 -5.164062 C 7.121094 -5.199219 7.105469 -5.226562 7.089844 -5.242188 C 7.007812 -5.292969 6.910156 -5.320312 6.800781 -5.335938 C 6.585938 -5.363281 6.371094 -5.378906 6.152344 -5.378906 L 3.453125 -5.378906 L 3.453125 -6.613281 L 4.6875 -6.613281 L 4.6875 -2.609375 L 3.453125 -2.609375 Z M 2.214844 -1.375 L 2.214844 -7.847656 L 6.152344 -7.847656 C 6.480469 -7.847656 6.800781 -7.828125 7.125 -7.785156 C 7.550781 -7.730469 7.945312 -7.597656 8.3125 -7.390625 C 8.75 -7.140625 9.09375 -6.773438 9.339844 -6.285156 C 9.566406 -5.839844 9.679688 -5.28125 9.679688 -4.609375 C 9.679688 -3.941406 9.566406 -3.382812 9.339844 -2.9375 C 9.09375 -2.449219 8.75 -2.082031 8.3125 -1.832031 C 7.945312 -1.625 7.550781 -1.492188 7.125 -1.4375 C 6.800781 -1.394531 6.480469 -1.375 6.152344 -1.375 Z M 2.214844 -1.375 "/></g></g><g style="fill:#e0feca;fill-opacity:1;"><g transform="translate(59.661791, 17.058603)"><path style="stroke:none" d="M 6.019531 1.367188 C 3.683594 1.367188 1.941406 0.867188 0.792969 -0.125 C 0.179688 -0.660156 -0.28125 -1.316406 -0.585938 -2.101562 C -0.867188 -2.839844 -1.011719 -3.679688 -1.011719 -4.625 C -1.011719 -5.566406 -0.867188 -6.402344 -0.582031 -7.136719 C -0.277344 -7.917969 0.179688 -8.574219 0.792969 -9.105469 C 1.945312 -10.09375 3.6875 -10.589844 6.019531 -10.589844 C 8.34375 -10.589844 10.085938 -10.09375 11.238281 -9.105469 C 11.855469 -8.578125 12.316406 -7.921875 12.621094 -7.136719 C 12.910156 -6.402344 13.050781 -5.566406 13.050781 -4.625 C 13.050781 -3.683594 12.910156 -2.84375 12.621094 -2.109375 C 12.320312 -1.324219 11.859375 -0.667969 11.242188 -0.132812 C 10.089844 0.867188 8.347656 1.367188 6.019531 1.367188 Z M 6.019531 -1.101562 C 6.921875 -1.101562 7.6875 -1.1875 8.316406 -1.359375 C 8.871094 -1.511719 9.304688 -1.722656 9.625 -2 C 10.261719 -2.554688 10.582031 -3.429688 10.582031 -4.625 C 10.582031 -5.816406 10.265625 -6.6875 9.628906 -7.230469 C 9.3125 -7.503906 8.875 -7.714844 8.320312 -7.863281 C 7.6875 -8.035156 6.921875 -8.117188 6.019531 -8.117188 C 5.113281 -8.117188 4.347656 -8.035156 3.714844 -7.863281 C 3.160156 -7.714844 2.722656 -7.503906 2.40625 -7.230469 C 1.773438 -6.6875 1.460938 -5.820312 1.460938 -4.625 C 1.460938 -3.417969 1.777344 -2.542969 2.410156 -1.996094 C 2.726562 -1.71875 3.160156 -1.507812 3.714844 -1.359375 C 4.347656 -1.1875 5.117188 -1.101562 6.019531 -1.101562 Z M 6.019531 -3.710938 C 6.554688 -3.710938 6.9375 -3.765625 7.160156 -3.871094 C 7.285156 -3.929688 7.363281 -3.988281 7.390625 -4.046875 C 7.464844 -4.195312 7.5 -4.390625 7.5 -4.625 C 7.5 -4.859375 7.464844 -5.054688 7.394531 -5.203125 C 7.371094 -5.25 7.300781 -5.296875 7.183594 -5.351562 C 6.957031 -5.457031 6.570312 -5.511719 6.019531 -5.511719 C 5.476562 -5.511719 5.089844 -5.457031 4.859375 -5.355469 C 4.75 -5.304688 4.683594 -5.257812 4.664062 -5.214844 C 4.589844 -5.0625 4.554688 -4.863281 4.554688 -4.625 C 4.554688 -4.382812 4.59375 -4.179688 4.667969 -4.019531 C 4.6875 -3.972656 4.757812 -3.921875 4.871094 -3.867188 C 5.097656 -3.765625 5.480469 -3.710938 6.019531 -3.710938 Z M 6.019531 -1.242188 C 5.121094 -1.242188 4.390625 -1.371094 3.835938 -1.625 C 3.171875 -1.933594 2.699219 -2.386719 2.421875 -2.988281 C 2.195312 -3.476562 2.085938 -4.023438 2.085938 -4.625 C 2.085938 -5.226562 2.199219 -5.773438 2.425781 -6.257812 C 2.703125 -6.855469 3.175781 -7.308594 3.847656 -7.609375 C 4.398438 -7.855469 5.125 -7.980469 6.019531 -7.980469 C 6.929688 -7.980469 7.664062 -7.851562 8.21875 -7.597656 C 8.878906 -7.292969 9.351562 -6.84375 9.628906 -6.257812 C 9.855469 -5.773438 9.96875 -5.230469 9.96875 -4.625 C 9.96875 -4.015625 9.851562 -3.464844 9.617188 -2.976562 C 9.335938 -2.394531 8.871094 -1.945312 8.214844 -1.636719 C 7.65625 -1.375 6.925781 -1.242188 6.019531 -1.242188 Z M 6.019531 -1.242188 "/></g></g><g style="fill:#e0feca;fill-opacity:1;"><g transform="translate(70.781069, 17.058603)"><path style="stroke:none" d="M 2.285156 0.40625 L -1.515625 -10.457031 L 4.441406 -10.457031 L 6.894531 -2.882812 L 5.71875 -2.503906 L 4.546875 -2.898438 L 7.113281 -10.457031 L 12.597656 -10.457031 L 15.171875 -2.902344 L 14.003906 -2.503906 L 12.828125 -2.882812 L 15.265625 -10.457031 L 21.222656 -10.457031 L 17.148438 1.234375 L 10.859375 1.234375 L 8.683594 -5.355469 L 9.855469 -5.742188 L 11.027344 -5.355469 L 8.851562 1.234375 L 2.574219 1.234375 Z M 4.617188 -0.40625 L 3.453125 0 L 3.453125 -1.234375 L 7.957031 -1.234375 L 7.957031 0 L 6.785156 -0.386719 L 9.855469 -9.683594 L 12.925781 -0.386719 L 11.75 0 L 11.75 -1.234375 L 16.269531 -1.234375 L 16.269531 0 L 15.105469 -0.40625 L 18.320312 -9.628906 L 19.484375 -9.222656 L 19.484375 -7.988281 L 16.164062 -7.988281 L 16.164062 -9.222656 L 17.339844 -8.84375 L 14.039062 1.421875 L 10.542969 -8.824219 L 11.710938 -9.222656 L 11.710938 -7.988281 L 7.996094 -7.988281 L 7.996094 -9.222656 L 9.167969 -8.824219 L 5.691406 1.421875 L 2.367188 -8.84375 L 3.542969 -9.222656 L 3.542969 -7.988281 L 0.222656 -7.988281 L 0.222656 -9.222656 L 1.390625 -9.628906 Z M 4.617188 -0.40625 "/></g></g><g style="fill:#e0feca;fill-opacity:1;"><g transform="translate(90.358386, 17.058603)"><path style="stroke:none" d="M -0.878906 0 L -0.878906 -10.457031 L 5.03125 -10.457031 L 10.117188 -4.148438 L 9.15625 -3.371094 L 7.921875 -3.371094 L 7.921875 -10.457031 L 13.472656 -10.457031 L 13.472656 1.234375 L 7.578125 1.234375 L 2.488281 -5.074219 L 3.453125 -5.847656 L 4.6875 -5.847656 L 4.6875 1.234375 L -0.878906 1.234375 Z M 1.589844 0 L 0.355469 0 L 0.355469 -1.234375 L 3.453125 -1.234375 L 3.453125 0 L 2.214844 0 L 2.214844 -9.347656 L 9.128906 -0.773438 L 8.167969 0 L 8.167969 -1.234375 L 12.238281 -1.234375 L 12.238281 0 L 11.003906 0 L 11.003906 -9.222656 L 12.238281 -9.222656 L 12.238281 -7.988281 L 9.15625 -7.988281 L 9.15625 -9.222656 L 10.390625 -9.222656 L 10.390625 0.125 L 3.476562 -8.445312 L 4.441406 -9.222656 L 4.441406 -7.988281 L 0.355469 -7.988281 L 0.355469 -9.222656 L 1.589844 -9.222656 Z M 1.589844 0 "/></g></g><g style="fill:#e0feca;fill-opacity:1;"><g transform="translate(102.966541, 17.058603)"><path style="stroke:none" d=""/></g></g><g style="fill:#fa6602;fill-opacity:1;"><g transform="translate(5.54092, 17.058603)"><path style="stroke:none" d="M 0.359375 0 L 0.359375 -9.21875 L 8.421875 -9.21875 C 9.117188 -9.21875 9.664062 -9.113281 10.0625 -8.90625 C 10.457031 -8.707031 10.738281 -8.429688 10.90625 -8.078125 C 11.070312 -7.722656 11.15625 -7.3125 11.15625 -6.84375 C 11.15625 -6.226562 10.914062 -5.648438 10.4375 -5.109375 C 10.832031 -4.835938 11.15625 -4.5 11.40625 -4.09375 C 11.65625 -3.6875 11.78125 -3.226562 11.78125 -2.71875 C 11.78125 -2.207031 11.675781 -1.742188 11.46875 -1.328125 C 11.257812 -0.921875 10.9375 -0.597656 10.5 -0.359375 C 10.0625 -0.117188 9.488281 0 8.78125 0 Z M 3.453125 -5.859375 L 7.171875 -5.859375 C 7.316406 -5.859375 7.457031 -5.867188 7.59375 -5.890625 C 7.726562 -5.910156 7.84375 -5.960938 7.9375 -6.046875 C 8.03125 -6.140625 8.078125 -6.289062 8.078125 -6.5 C 8.078125 -6.726562 8.03125 -6.882812 7.9375 -6.96875 C 7.84375 -7.050781 7.726562 -7.101562 7.59375 -7.125 C 7.457031 -7.144531 7.316406 -7.15625 7.171875 -7.15625 L 3.453125 -7.15625 Z M 3.453125 -2.296875 L 7.796875 -2.296875 C 7.941406 -2.296875 8.082031 -2.300781 8.21875 -2.3125 C 8.363281 -2.332031 8.476562 -2.382812 8.5625 -2.46875 C 8.65625 -2.5625 8.703125 -2.710938 8.703125 -2.921875 C 8.703125 -3.140625 8.65625 -3.289062 8.5625 -3.375 C 8.476562 -3.46875 8.363281 -3.519531 8.21875 -3.53125 C 8.082031 -3.550781 7.941406 -3.5625 7.796875 -3.5625 L 3.453125 -3.5625 Z M 3.453125 -2.296875 "/></g></g><g style="fill:#fa6602;fill-opacity:1;"><g transform="translate(17.253055, 17.058603)"><path style="stroke:none" d="M 6.015625 0.125 C 3.992188 0.125 2.519531 -0.269531 1.59375 -1.0625 C 0.675781 -1.851562 0.21875 -3.039062 0.21875 -4.625 C 0.21875 -6.195312 0.675781 -7.378906 1.59375 -8.171875 C 2.519531 -8.960938 3.992188 -9.359375 6.015625 -9.359375 C 8.035156 -9.359375 9.503906 -8.960938 10.421875 -8.171875 C 11.347656 -7.378906 11.8125 -6.195312 11.8125 -4.625 C 11.8125 -3.050781 11.347656 -1.863281 10.421875 -1.0625 C 9.503906 -0.269531 8.035156 0.125 6.015625 0.125 Z M 6.015625 -2.46875 C 6.734375 -2.46875 7.285156 -2.5625 7.671875 -2.75 C 8.066406 -2.9375 8.34375 -3.1875 8.5 -3.5 C 8.65625 -3.820312 8.734375 -4.195312 8.734375 -4.625 C 8.734375 -5.039062 8.65625 -5.40625 8.5 -5.71875 C 8.351562 -6.039062 8.082031 -6.289062 7.6875 -6.46875 C 7.300781 -6.65625 6.742188 -6.75 6.015625 -6.75 C 5.296875 -6.75 4.738281 -6.660156 4.34375 -6.484375 C 3.957031 -6.304688 3.6875 -6.054688 3.53125 -5.734375 C 3.382812 -5.410156 3.3125 -5.039062 3.3125 -4.625 C 3.3125 -4.195312 3.382812 -3.820312 3.53125 -3.5 C 3.6875 -3.175781 3.957031 -2.921875 4.34375 -2.734375 C 4.738281 -2.554688 5.296875 -2.46875 6.015625 -2.46875 Z M 6.015625 -2.46875 "/></g></g><g style="fill:#fa6602;fill-opacity:1;"><g transform="translate(28.372339, 17.058603)"><path style="stroke:none" d="M 3.453125 0 L 0.21875 -9.21875 L 3.546875 -9.21875 L 5.71875 -2.5 L 8 -9.21875 L 11.703125 -9.21875 L 14 -2.5 L 16.15625 -9.21875 L 19.484375 -9.21875 L 16.265625 0 L 11.75 0 L 9.859375 -5.75 L 7.953125 0 Z M 3.453125 0 "/></g></g><g style="fill:#fa6602;fill-opacity:1;"><g transform="translate(47.949653, 17.058603)"><path style="stroke:none" d="M 0.359375 0 L 0.359375 -9.21875 L 7.171875 -9.21875 C 7.734375 -9.21875 8.273438 -9.125 8.796875 -8.9375 C 9.316406 -8.75 9.78125 -8.460938 10.1875 -8.078125 C 10.601562 -7.703125 10.929688 -7.222656 11.171875 -6.640625 C 11.410156 -6.066406 11.53125 -5.390625 11.53125 -4.609375 C 11.53125 -3.828125 11.410156 -3.144531 11.171875 -2.5625 C 10.929688 -1.988281 10.601562 -1.507812 10.1875 -1.125 C 9.78125 -0.75 9.316406 -0.46875 8.796875 -0.28125 C 8.273438 -0.09375 7.734375 0 7.171875 0 Z M 3.453125 -2.609375 L 6.15625 -2.609375 C 6.425781 -2.609375 6.691406 -2.625 6.953125 -2.65625 C 7.222656 -2.695312 7.46875 -2.78125 7.6875 -2.90625 C 7.914062 -3.03125 8.097656 -3.226562 8.234375 -3.5 C 8.367188 -3.769531 8.4375 -4.140625 8.4375 -4.609375 C 8.4375 -5.085938 8.367188 -5.457031 8.234375 -5.71875 C 8.097656 -5.988281 7.914062 -6.1875 7.6875 -6.3125 C 7.46875 -6.4375 7.222656 -6.515625 6.953125 -6.546875 C 6.691406 -6.585938 6.425781 -6.609375 6.15625 -6.609375 L 3.453125 -6.609375 Z M 3.453125 -2.609375 "/></g></g><g style="fill:#fa6602;fill-opacity:1;"><g transform="translate(59.661791, 17.058603)"><path style="stroke:none" d="M 6.015625 0.125 C 3.992188 0.125 2.519531 -0.269531 1.59375 -1.0625 C 0.675781 -1.851562 0.21875 -3.039062 0.21875 -4.625 C 0.21875 -6.195312 0.675781 -7.378906 1.59375 -8.171875 C 2.519531 -8.960938 3.992188 -9.359375 6.015625 -9.359375 C 8.035156 -9.359375 9.503906 -8.960938 10.421875 -8.171875 C 11.347656 -7.378906 11.8125 -6.195312 11.8125 -4.625 C 11.8125 -3.050781 11.347656 -1.863281 10.421875 -1.0625 C 9.503906 -0.269531 8.035156 0.125 6.015625 0.125 Z M 6.015625 -2.46875 C 6.734375 -2.46875 7.285156 -2.5625 7.671875 -2.75 C 8.066406 -2.9375 8.34375 -3.1875 8.5 -3.5 C 8.65625 -3.820312 8.734375 -4.195312 8.734375 -4.625 C 8.734375 -5.039062 8.65625 -5.40625 8.5 -5.71875 C 8.351562 -6.039062 8.082031 -6.289062 7.6875 -6.46875 C 7.300781 -6.65625 6.742188 -6.75 6.015625 -6.75 C 5.296875 -6.75 4.738281 -6.660156 4.34375 -6.484375 C 3.957031 -6.304688 3.6875 -6.054688 3.53125 -5.734375 C 3.382812 -5.410156 3.3125 -5.039062 3.3125 -4.625 C 3.3125 -4.195312 3.382812 -3.820312 3.53125 -3.5 C 3.6875 -3.175781 3.957031 -2.921875 4.34375 -2.734375 C 4.738281 -2.554688 5.296875 -2.46875 6.015625 -2.46875 Z M 6.015625 -2.46875 "/></g></g><g style="fill:#fa6602;fill-opacity:1;"><g transform="translate(70.781069, 17.058603)"><path style="stroke:none" d="M 3.453125 0 L 0.21875 -9.21875 L 3.546875 -9.21875 L 5.71875 -2.5 L 8 -9.21875 L 11.703125 -9.21875 L 14 -2.5 L 16.15625 -9.21875 L 19.484375 -9.21875 L 16.265625 0 L 11.75 0 L 9.859375 -5.75 L 7.953125 0 Z M 3.453125 0 "/></g></g><g style="fill:#fa6602;fill-opacity:1;"><g transform="translate(90.358386, 17.058603)"><path style="stroke:none" d="M 0.359375 0 L 0.359375 -9.21875 L 4.4375 -9.21875 L 9.15625 -3.375 L 9.15625 -9.21875 L 12.234375 -9.21875 L 12.234375 0 L 8.171875 0 L 3.453125 -5.84375 L 3.453125 0 Z M 0.359375 0 "/></g></g><g style="fill:#fa6602;fill-opacity:1;"><g transform="translate(102.966541, 17.058603)"><path style="stroke:none" d=""/></g></g><g style="fill:#ffffff;fill-opacity:1;"><g transform="translate(35.0622, 23.183617)"><path style="stroke:none" d="M 1.828125 0.046875 C 1.398438 0.046875 1.039062 -0.101562 0.75 -0.40625 C 0.457031 -0.695312 0.3125 -1.050781 0.3125 -1.46875 C 0.3125 -1.894531 0.457031 -2.253906 0.75 -2.546875 C 1.039062 -2.835938 1.398438 -2.984375 1.828125 -2.984375 C 2.015625 -2.984375 2.207031 -2.941406 2.40625 -2.859375 C 2.59375 -2.773438 2.753906 -2.664062 2.890625 -2.53125 L 2.703125 -2.34375 C 2.460938 -2.59375 2.171875 -2.71875 1.828125 -2.71875 C 1.472656 -2.71875 1.175781 -2.597656 0.9375 -2.359375 C 0.695312 -2.117188 0.578125 -1.820312 0.578125 -1.46875 C 0.578125 -1.125 0.695312 -0.832031 0.9375 -0.59375 C 1.175781 -0.351562 1.472656 -0.234375 1.828125 -0.234375 C 2.171875 -0.234375 2.460938 -0.351562 2.703125 -0.59375 L 2.890625 -0.40625 C 2.753906 -0.269531 2.59375 -0.160156 2.40625 -0.078125 C 2.207031 0.00390625 2.015625 0.046875 1.828125 0.046875 Z M 1.828125 0.046875 "/></g></g><g style="fill:#ffffff;fill-opacity:1;"><g transform="translate(39.300453, 23.183617)"><path style="stroke:none" d="M 1.765625 0.046875 C 1.347656 0.046875 0.992188 -0.101562 0.703125 -0.40625 C 0.410156 -0.695312 0.265625 -1.050781 0.265625 -1.46875 C 0.265625 -1.882812 0.410156 -2.242188 0.703125 -2.546875 C 0.992188 -2.835938 1.347656 -2.984375 1.765625 -2.984375 C 2.179688 -2.984375 2.539062 -2.835938 2.84375 -2.546875 C 3.132812 -2.242188 3.28125 -1.882812 3.28125 -1.46875 C 3.28125 -1.050781 3.132812 -0.695312 2.84375 -0.40625 C 2.539062 -0.101562 2.179688 0.046875 1.765625 0.046875 Z M 1.765625 -0.234375 C 2.109375 -0.234375 2.40625 -0.351562 2.65625 -0.59375 C 2.894531 -0.832031 3.015625 -1.125 3.015625 -1.46875 C 3.015625 -1.8125 2.894531 -2.109375 2.65625 -2.359375 C 2.40625 -2.597656 2.109375 -2.71875 1.765625 -2.71875 C 1.421875 -2.71875 1.128906 -2.597656 0.890625 -2.359375 C 0.640625 -2.109375 0.515625 -1.8125 0.515625 -1.46875 C 0.515625 -1.125 0.640625 -0.832031 0.890625 -0.59375 C 1.128906 -0.351562 1.421875 -0.234375 1.765625 -0.234375 Z M 1.765625 -0.234375 "/></g></g><g style="fill:#ffffff;fill-opacity:1;"><g transform="translate(44.096473, 23.183617)"><path style="stroke:none" d="M 0.625 -0.265625 L 1.734375 -0.265625 L 1.734375 0 L 0.359375 0 L 0.359375 -2.9375 L 0.625 -2.9375 Z M 0.625 -0.265625 "/></g></g><g style="fill:#ffffff;fill-opacity:1;"><g transform="translate(47.132774, 23.183617)"><path style="stroke:none" d="M 0.625 -0.265625 L 1.734375 -0.265625 L 1.734375 0 L 0.359375 0 L 0.359375 -2.9375 L 0.625 -2.9375 Z M 0.625 -0.265625 "/></g></g><g style="fill:#ffffff;fill-opacity:1;"><g transform="translate(50.169075, 23.183617)"><path style="stroke:none" d="M 1.96875 -2.6875 L 0.65625 -2.6875 L 0.65625 -1.59375 L 1.796875 -1.59375 L 1.796875 -1.34375 L 0.65625 -1.34375 L 0.65625 -0.25 L 1.96875 -0.25 L 1.96875 0 L 0.390625 0 L 0.390625 -2.9375 L 1.96875 -2.9375 Z M 1.96875 -2.6875 "/></g></g><g style="fill:#ffffff;fill-opacity:1;"><g transform="translate(53.472478, 23.183617)"><path style="stroke:none" d="M 1.828125 0.046875 C 1.398438 0.046875 1.039062 -0.101562 0.75 -0.40625 C 0.457031 -0.695312 0.3125 -1.050781 0.3125 -1.46875 C 0.3125 -1.894531 0.457031 -2.253906 0.75 -2.546875 C 1.039062 -2.835938 1.398438 -2.984375 1.828125 -2.984375 C 2.015625 -2.984375 2.207031 -2.941406 2.40625 -2.859375 C 2.59375 -2.773438 2.753906 -2.664062 2.890625 -2.53125 L 2.703125 -2.34375 C 2.460938 -2.59375 2.171875 -2.71875 1.828125 -2.71875 C 1.472656 -2.71875 1.175781 -2.597656 0.9375 -2.359375 C 0.695312 -2.117188 0.578125 -1.820312 0.578125 -1.46875 C 0.578125 -1.125 0.695312 -0.832031 0.9375 -0.59375 C 1.175781 -0.351562 1.472656 -0.234375 1.828125 -0.234375 C 2.171875 -0.234375 2.460938 -0.351562 2.703125 -0.59375 L 2.890625 -0.40625 C 2.753906 -0.269531 2.59375 -0.160156 2.40625 -0.078125 C 2.207031 0.00390625 2.015625 0.046875 1.828125 0.046875 Z M 1.828125 0.046875 "/></g></g><g style="fill:#ffffff;fill-opacity:1;"><g transform="translate(57.789289, 23.183617)"><path style="stroke:none" d="M 1.96875 -2.9375 L 1.96875 -2.671875 L 1.140625 -2.671875 L 1.140625 0 L 0.875 0 L 0.875 -2.671875 L 0.046875 -2.671875 L 0.046875 -2.9375 Z M 1.96875 -2.9375 "/></g></g><g style="fill:#ffffff;fill-opacity:1;"><g transform="translate(61.057338, 23.183617)"><path style="stroke:none" d="M 0.390625 0 L 0.390625 -2.9375 L 0.65625 -2.9375 L 0.65625 0 Z M 0.390625 0 "/></g></g><g style="fill:#ffffff;fill-opacity:1;"><g transform="translate(63.351258, 23.183617)"><path style="stroke:none" d="M 1.765625 0.046875 C 1.347656 0.046875 0.992188 -0.101562 0.703125 -0.40625 C 0.410156 -0.695312 0.265625 -1.050781 0.265625 -1.46875 C 0.265625 -1.882812 0.410156 -2.242188 0.703125 -2.546875 C 0.992188 -2.835938 1.347656 -2.984375 1.765625 -2.984375 C 2.179688 -2.984375 2.539062 -2.835938 2.84375 -2.546875 C 3.132812 -2.242188 3.28125 -1.882812 3.28125 -1.46875 C 3.28125 -1.050781 3.132812 -0.695312 2.84375 -0.40625 C 2.539062 -0.101562 2.179688 0.046875 1.765625 0.046875 Z M 1.765625 -0.234375 C 2.109375 -0.234375 2.40625 -0.351562 2.65625 -0.59375 C 2.894531 -0.832031 3.015625 -1.125 3.015625 -1.46875 C 3.015625 -1.8125 2.894531 -2.109375 2.65625 -2.359375 C 2.40625 -2.597656 2.109375 -2.71875 1.765625 -2.71875 C 1.421875 -2.71875 1.128906 -2.597656 0.890625 -2.359375 C 0.640625 -2.109375 0.515625 -1.8125 0.515625 -1.46875 C 0.515625 -1.125 0.640625 -0.832031 0.890625 -0.59375 C 1.128906 -0.351562 1.421875 -0.234375 1.765625 -0.234375 Z M 1.765625 -0.234375 "/></g></g><g style="fill:#ffffff;fill-opacity:1;"><g transform="translate(68.147279, 23.183617)"><path style="stroke:none" d="M 2.46875 -2.9375 L 2.734375 -2.9375 L 2.734375 0 L 2.5 0 L 0.625 -2.484375 L 0.625 0 L 0.359375 0 L 0.359375 -2.9375 L 0.59375 -2.9375 L 2.46875 -0.453125 Z M 2.46875 -2.9375 "/></g></g></g></svg>